<mxfile host="app.diagrams.net" modified="2023-09-06T07:30:58.835Z" agent="Mozilla/5.0 (Windows NT 10.0; Win64; x64) AppleWebKit/537.36 (KHTML, like Gecko) Chrome/116.0.0.0 Safari/537.36" etag="pcLih9rX3lY71937L7mW" version="21.6.8" type="device">
  <diagram name="페이지-1" id="qqbex0Bg_a6Da8rbGSVL">
    <mxGraphModel dx="1834" dy="1990" grid="0" gridSize="10" guides="1" tooltips="1" connect="1" arrows="1" fold="1" page="0" pageScale="1" pageWidth="827" pageHeight="1169" math="0" shadow="0">
      <root>
        <mxCell id="0" />
        <mxCell id="1" parent="0" />
        <mxCell id="ZT3Jv7X_USVVSpchrtD9-3" value="&lt;font style=&quot;font-size: 20px;&quot;&gt;CLUSTER IP : 192.168.0.1&amp;nbsp;&lt;br&gt;&lt;/font&gt;&lt;br&gt;&lt;br&gt;&lt;br&gt;&lt;br&gt;&lt;br&gt;&lt;br&gt;수신기 IP : 192.168.0.0&amp;nbsp;&lt;br&gt;&lt;br&gt;&lt;br&gt;&lt;br&gt;" style="rounded=0;whiteSpace=wrap;html=1;" parent="1" vertex="1">
          <mxGeometry x="-163" y="10372" width="514" height="258" as="geometry" />
        </mxCell>
        <mxCell id="9ALX-sLitY-2VKWW8MfH-23" value="" style="rounded=0;whiteSpace=wrap;html=1;" parent="1" vertex="1">
          <mxGeometry x="-263" y="5115" width="736" height="436" as="geometry" />
        </mxCell>
        <mxCell id="O7vC9KH4D_OnZLa8_7qR-16" value="" style="edgeStyle=orthogonalEdgeStyle;rounded=0;orthogonalLoop=1;jettySize=auto;html=1;" parent="1" source="O7vC9KH4D_OnZLa8_7qR-3" target="O7vC9KH4D_OnZLa8_7qR-15" edge="1">
          <mxGeometry relative="1" as="geometry" />
        </mxCell>
        <mxCell id="O7vC9KH4D_OnZLa8_7qR-18" value="" style="edgeStyle=orthogonalEdgeStyle;rounded=0;orthogonalLoop=1;jettySize=auto;html=1;" parent="1" source="O7vC9KH4D_OnZLa8_7qR-3" target="O7vC9KH4D_OnZLa8_7qR-17" edge="1">
          <mxGeometry relative="1" as="geometry">
            <mxPoint x="170" y="451" as="targetPoint" />
            <Array as="points">
              <mxPoint x="160" y="338" />
              <mxPoint x="160" y="451" />
            </Array>
          </mxGeometry>
        </mxCell>
        <mxCell id="O7vC9KH4D_OnZLa8_7qR-3" value="CONTACTCENTER" style="aspect=fixed;html=1;points=[];align=center;image;fontSize=12;image=img/lib/azure2/general/Folder_Blank.svg;" parent="1" vertex="1">
          <mxGeometry x="60" y="310" width="69" height="56.00000000000001" as="geometry" />
        </mxCell>
        <mxCell id="O7vC9KH4D_OnZLa8_7qR-15" value="&lt;font style=&quot;vertical-align: inherit;&quot;&gt;&lt;font style=&quot;vertical-align: inherit;&quot;&gt;&lt;font style=&quot;vertical-align: inherit;&quot;&gt;&lt;font style=&quot;vertical-align: inherit;&quot;&gt;&lt;font style=&quot;vertical-align: inherit;&quot;&gt;&lt;font style=&quot;vertical-align: inherit;&quot;&gt;01.Trunc&lt;/font&gt;&lt;/font&gt;&lt;/font&gt;&lt;/font&gt;&lt;br&gt;&lt;/font&gt;&lt;/font&gt;" style="aspect=fixed;html=1;points=[];align=center;image;fontSize=12;image=img/lib/azure2/general/Folder_Blank.svg;" parent="1" vertex="1">
          <mxGeometry x="209" y="310" width="69" height="56.00000000000001" as="geometry" />
        </mxCell>
        <mxCell id="O7vC9KH4D_OnZLa8_7qR-20" value="" style="edgeStyle=orthogonalEdgeStyle;rounded=0;orthogonalLoop=1;jettySize=auto;html=1;" parent="1" source="O7vC9KH4D_OnZLa8_7qR-17" target="O7vC9KH4D_OnZLa8_7qR-19" edge="1">
          <mxGeometry relative="1" as="geometry" />
        </mxCell>
        <mxCell id="O7vC9KH4D_OnZLa8_7qR-26" value="" style="edgeStyle=orthogonalEdgeStyle;rounded=0;orthogonalLoop=1;jettySize=auto;html=1;entryX=0;entryY=0.571;entryDx=0;entryDy=0;entryPerimeter=0;" parent="1" source="O7vC9KH4D_OnZLa8_7qR-17" target="O7vC9KH4D_OnZLa8_7qR-25" edge="1">
          <mxGeometry relative="1" as="geometry">
            <mxPoint x="308" y="561" as="targetPoint" />
          </mxGeometry>
        </mxCell>
        <mxCell id="O7vC9KH4D_OnZLa8_7qR-17" value="&lt;font style=&quot;vertical-align: inherit;&quot;&gt;&lt;font style=&quot;vertical-align: inherit;&quot;&gt;&lt;font style=&quot;vertical-align: inherit;&quot;&gt;&lt;font style=&quot;vertical-align: inherit;&quot;&gt;&lt;font style=&quot;vertical-align: inherit;&quot;&gt;&lt;font style=&quot;vertical-align: inherit;&quot;&gt;02.Branch&lt;/font&gt;&lt;/font&gt;&lt;/font&gt;&lt;/font&gt;&lt;/font&gt;&lt;/font&gt;" style="aspect=fixed;html=1;points=[];align=center;image;fontSize=12;image=img/lib/azure2/general/Folder_Blank.svg;" parent="1" vertex="1">
          <mxGeometry x="209" y="420" width="69" height="56.00000000000001" as="geometry" />
        </mxCell>
        <mxCell id="O7vC9KH4D_OnZLa8_7qR-39" value="" style="edgeStyle=orthogonalEdgeStyle;rounded=0;orthogonalLoop=1;jettySize=auto;html=1;fontSize=30;" parent="1" source="O7vC9KH4D_OnZLa8_7qR-19" target="O7vC9KH4D_OnZLa8_7qR-38" edge="1">
          <mxGeometry relative="1" as="geometry" />
        </mxCell>
        <mxCell id="O7vC9KH4D_OnZLa8_7qR-51" style="edgeStyle=orthogonalEdgeStyle;rounded=0;orthogonalLoop=1;jettySize=auto;html=1;fontSize=30;entryX=-0.014;entryY=0.589;entryDx=0;entryDy=0;entryPerimeter=0;" parent="1" source="O7vC9KH4D_OnZLa8_7qR-19" target="O7vC9KH4D_OnZLa8_7qR-50" edge="1">
          <mxGeometry relative="1" as="geometry" />
        </mxCell>
        <mxCell id="O7vC9KH4D_OnZLa8_7qR-19" value="101.[보험사 1]" style="aspect=fixed;html=1;points=[];align=center;image;fontSize=12;image=img/lib/azure2/general/Folder_Blank.svg;" parent="1" vertex="1">
          <mxGeometry x="345" y="420" width="69" height="56.00000000000001" as="geometry" />
        </mxCell>
        <mxCell id="O7vC9KH4D_OnZLa8_7qR-25" value="102.[보험사 2]" style="aspect=fixed;html=1;points=[];align=center;image;fontSize=12;image=img/lib/azure2/general/Folder_Blank.svg;" parent="1" vertex="1">
          <mxGeometry x="345" y="539" width="69" height="56.00000000000001" as="geometry" />
        </mxCell>
        <mxCell id="O7vC9KH4D_OnZLa8_7qR-35" style="edgeStyle=orthogonalEdgeStyle;rounded=0;orthogonalLoop=1;jettySize=auto;html=1;exitX=1;exitY=0.5;exitDx=0;exitDy=0;entryX=0;entryY=0.5;entryDx=0;entryDy=0;fontSize=30;" parent="1" source="O7vC9KH4D_OnZLa8_7qR-28" target="O7vC9KH4D_OnZLa8_7qR-30" edge="1">
          <mxGeometry relative="1" as="geometry" />
        </mxCell>
        <mxCell id="O7vC9KH4D_OnZLa8_7qR-28" value="&lt;font style=&quot;vertical-align: inherit;&quot;&gt;&lt;font style=&quot;vertical-align: inherit;&quot;&gt;telebuscallX.ocx&lt;/font&gt;&lt;/font&gt;" style="rounded=0;whiteSpace=wrap;html=1;" parent="1" vertex="1">
          <mxGeometry x="-157" y="1050" width="120" height="60" as="geometry" />
        </mxCell>
        <mxCell id="O7vC9KH4D_OnZLa8_7qR-36" style="edgeStyle=orthogonalEdgeStyle;rounded=0;orthogonalLoop=1;jettySize=auto;html=1;exitX=1;exitY=0.5;exitDx=0;exitDy=0;entryX=0;entryY=0.5;entryDx=0;entryDy=0;fontSize=30;" parent="1" source="O7vC9KH4D_OnZLa8_7qR-30" target="O7vC9KH4D_OnZLa8_7qR-31" edge="1">
          <mxGeometry relative="1" as="geometry" />
        </mxCell>
        <mxCell id="O7vC9KH4D_OnZLa8_7qR-30" value="&lt;font style=&quot;vertical-align: inherit;&quot;&gt;&lt;font style=&quot;vertical-align: inherit;&quot;&gt;교환기&lt;/font&gt;&lt;/font&gt;" style="rounded=0;whiteSpace=wrap;html=1;" parent="1" vertex="1">
          <mxGeometry x="115" y="1050" width="120" height="60" as="geometry" />
        </mxCell>
        <mxCell id="O7vC9KH4D_OnZLa8_7qR-31" value="&lt;font style=&quot;vertical-align: inherit;&quot;&gt;&lt;font style=&quot;vertical-align: inherit;&quot;&gt;PDS&lt;/font&gt;&lt;/font&gt;" style="rounded=0;whiteSpace=wrap;html=1;" parent="1" vertex="1">
          <mxGeometry x="387" y="1054" width="120" height="51" as="geometry" />
        </mxCell>
        <mxCell id="O7vC9KH4D_OnZLa8_7qR-33" style="edgeStyle=orthogonalEdgeStyle;rounded=0;orthogonalLoop=1;jettySize=auto;html=1;entryX=0.5;entryY=0;entryDx=0;entryDy=0;" parent="1" source="O7vC9KH4D_OnZLa8_7qR-32" target="O7vC9KH4D_OnZLa8_7qR-28" edge="1">
          <mxGeometry relative="1" as="geometry">
            <Array as="points">
              <mxPoint x="719" y="863" />
              <mxPoint x="-97" y="863" />
            </Array>
          </mxGeometry>
        </mxCell>
        <mxCell id="O7vC9KH4D_OnZLa8_7qR-34" value="&lt;font style=&quot;vertical-align: inherit; font-size: 30px;&quot;&gt;&lt;font style=&quot;vertical-align: inherit; font-size: 30px;&quot;&gt;event&amp;nbsp; hangup&lt;/font&gt;&lt;/font&gt;" style="edgeLabel;html=1;align=center;verticalAlign=middle;resizable=0;points=[];fontSize=30;" parent="O7vC9KH4D_OnZLa8_7qR-33" vertex="1" connectable="0">
          <mxGeometry x="-0.0226" y="-4" relative="1" as="geometry">
            <mxPoint as="offset" />
          </mxGeometry>
        </mxCell>
        <mxCell id="O7vC9KH4D_OnZLa8_7qR-32" value="&lt;font style=&quot;vertical-align: inherit;&quot;&gt;&lt;font style=&quot;vertical-align: inherit;&quot;&gt;고객&lt;/font&gt;&lt;/font&gt;" style="rounded=0;whiteSpace=wrap;html=1;" parent="1" vertex="1">
          <mxGeometry x="659" y="1057" width="120" height="60" as="geometry" />
        </mxCell>
        <mxCell id="O7vC9KH4D_OnZLa8_7qR-38" value="01.Trunc" style="aspect=fixed;html=1;points=[];align=center;image;fontSize=12;image=img/lib/azure2/general/Folder_Blank.svg;" parent="1" vertex="1">
          <mxGeometry x="494" y="420" width="69" height="56.00000000000001" as="geometry" />
        </mxCell>
        <mxCell id="O7vC9KH4D_OnZLa8_7qR-56" value="" style="edgeStyle=orthogonalEdgeStyle;rounded=0;orthogonalLoop=1;jettySize=auto;html=1;fontSize=30;entryX=0;entryY=0.536;entryDx=0;entryDy=0;entryPerimeter=0;" parent="1" source="O7vC9KH4D_OnZLa8_7qR-50" target="O7vC9KH4D_OnZLa8_7qR-52" edge="1">
          <mxGeometry relative="1" as="geometry" />
        </mxCell>
        <mxCell id="O7vC9KH4D_OnZLa8_7qR-58" value="" style="edgeStyle=orthogonalEdgeStyle;rounded=0;orthogonalLoop=1;jettySize=auto;html=1;fontSize=30;" parent="1" source="O7vC9KH4D_OnZLa8_7qR-50" target="O7vC9KH4D_OnZLa8_7qR-57" edge="1">
          <mxGeometry relative="1" as="geometry" />
        </mxCell>
        <mxCell id="O7vC9KH4D_OnZLa8_7qR-50" value="02.Branch" style="aspect=fixed;html=1;points=[];align=center;image;fontSize=12;image=img/lib/azure2/general/Folder_Blank.svg;" parent="1" vertex="1">
          <mxGeometry x="494" y="539" width="69" height="56.00000000000001" as="geometry" />
        </mxCell>
        <mxCell id="O7vC9KH4D_OnZLa8_7qR-52" value="02.[스폰서/센터]" style="aspect=fixed;html=1;points=[];align=center;image;fontSize=12;image=img/lib/azure2/general/Folder_Blank.svg;" parent="1" vertex="1">
          <mxGeometry x="643" y="644" width="69" height="56.00000000000001" as="geometry" />
        </mxCell>
        <mxCell id="O7vC9KH4D_OnZLa8_7qR-57" value="01.[스폰서/센터]" style="aspect=fixed;html=1;points=[];align=center;image;fontSize=12;image=img/lib/azure2/general/Folder_Blank.svg;" parent="1" vertex="1">
          <mxGeometry x="643" y="539" width="69" height="56.00000000000001" as="geometry" />
        </mxCell>
        <mxCell id="O7vC9KH4D_OnZLa8_7qR-62" value="" style="edgeStyle=orthogonalEdgeStyle;rounded=0;orthogonalLoop=1;jettySize=auto;html=1;fontSize=30;entryX=0.014;entryY=0.518;entryDx=0;entryDy=0;entryPerimeter=0;" parent="1" source="O7vC9KH4D_OnZLa8_7qR-59" target="O7vC9KH4D_OnZLa8_7qR-61" edge="1">
          <mxGeometry relative="1" as="geometry" />
        </mxCell>
        <mxCell id="O7vC9KH4D_OnZLa8_7qR-64" value="" style="edgeStyle=orthogonalEdgeStyle;rounded=0;orthogonalLoop=1;jettySize=auto;html=1;fontSize=30;entryX=0.014;entryY=0.518;entryDx=0;entryDy=0;entryPerimeter=0;" parent="1" source="O7vC9KH4D_OnZLa8_7qR-59" target="O7vC9KH4D_OnZLa8_7qR-63" edge="1">
          <mxGeometry relative="1" as="geometry" />
        </mxCell>
        <mxCell id="O7vC9KH4D_OnZLa8_7qR-66" value="" style="edgeStyle=orthogonalEdgeStyle;rounded=0;orthogonalLoop=1;jettySize=auto;html=1;fontSize=30;" parent="1" source="O7vC9KH4D_OnZLa8_7qR-59" target="O7vC9KH4D_OnZLa8_7qR-65" edge="1">
          <mxGeometry relative="1" as="geometry" />
        </mxCell>
        <mxCell id="O7vC9KH4D_OnZLa8_7qR-59" value="Trunc, Branch" style="aspect=fixed;html=1;points=[];align=center;image;fontSize=12;image=img/lib/azure2/general/Folder_Blank.svg;" parent="1" vertex="1">
          <mxGeometry x="60" y="-156" width="69" height="56.00000000000001" as="geometry" />
        </mxCell>
        <mxCell id="O7vC9KH4D_OnZLa8_7qR-61" value="03.exe" style="aspect=fixed;html=1;points=[];align=center;image;fontSize=12;image=img/lib/azure2/general/Folder_Blank.svg;" parent="1" vertex="1">
          <mxGeometry x="216" y="51" width="69" height="56.00000000000001" as="geometry" />
        </mxCell>
        <mxCell id="O7vC9KH4D_OnZLa8_7qR-63" value="02.DB" style="aspect=fixed;html=1;points=[];align=center;image;fontSize=12;image=img/lib/azure2/general/Folder_Blank.svg;" parent="1" vertex="1">
          <mxGeometry x="216" y="-52" width="69" height="56.00000000000001" as="geometry" />
        </mxCell>
        <mxCell id="O7vC9KH4D_OnZLa8_7qR-65" value="01.Source" style="aspect=fixed;html=1;points=[];align=center;image;fontSize=12;image=img/lib/azure2/general/Folder_Blank.svg;" parent="1" vertex="1">
          <mxGeometry x="216" y="-156" width="69" height="56.00000000000001" as="geometry" />
        </mxCell>
        <mxCell id="O7vC9KH4D_OnZLa8_7qR-70" value="" style="edgeStyle=orthogonalEdgeStyle;rounded=0;orthogonalLoop=1;jettySize=auto;html=1;fontSize=30;entryX=0.014;entryY=0.5;entryDx=0;entryDy=0;entryPerimeter=0;" parent="1" source="O7vC9KH4D_OnZLa8_7qR-67" target="O7vC9KH4D_OnZLa8_7qR-69" edge="1">
          <mxGeometry relative="1" as="geometry" />
        </mxCell>
        <mxCell id="O7vC9KH4D_OnZLa8_7qR-74" value="" style="edgeStyle=orthogonalEdgeStyle;rounded=0;orthogonalLoop=1;jettySize=auto;html=1;fontSize=30;entryX=0;entryY=0.5;entryDx=0;entryDy=0;entryPerimeter=0;" parent="1" source="O7vC9KH4D_OnZLa8_7qR-67" target="O7vC9KH4D_OnZLa8_7qR-73" edge="1">
          <mxGeometry relative="1" as="geometry" />
        </mxCell>
        <mxCell id="O7vC9KH4D_OnZLa8_7qR-76" value="" style="edgeStyle=orthogonalEdgeStyle;rounded=0;orthogonalLoop=1;jettySize=auto;html=1;fontSize=30;entryX=0;entryY=0.5;entryDx=0;entryDy=0;entryPerimeter=0;" parent="1" source="O7vC9KH4D_OnZLa8_7qR-67" target="O7vC9KH4D_OnZLa8_7qR-75" edge="1">
          <mxGeometry relative="1" as="geometry" />
        </mxCell>
        <mxCell id="O7vC9KH4D_OnZLa8_7qR-78" value="" style="edgeStyle=orthogonalEdgeStyle;rounded=0;orthogonalLoop=1;jettySize=auto;html=1;fontSize=30;entryX=0;entryY=0.5;entryDx=0;entryDy=0;entryPerimeter=0;" parent="1" source="O7vC9KH4D_OnZLa8_7qR-67" target="O7vC9KH4D_OnZLa8_7qR-77" edge="1">
          <mxGeometry relative="1" as="geometry" />
        </mxCell>
        <mxCell id="O7vC9KH4D_OnZLa8_7qR-80" value="" style="edgeStyle=orthogonalEdgeStyle;rounded=0;orthogonalLoop=1;jettySize=auto;html=1;fontSize=30;entryX=0.014;entryY=0.5;entryDx=0;entryDy=0;entryPerimeter=0;" parent="1" source="O7vC9KH4D_OnZLa8_7qR-67" target="O7vC9KH4D_OnZLa8_7qR-79" edge="1">
          <mxGeometry relative="1" as="geometry" />
        </mxCell>
        <mxCell id="O7vC9KH4D_OnZLa8_7qR-82" value="" style="edgeStyle=orthogonalEdgeStyle;rounded=0;orthogonalLoop=1;jettySize=auto;html=1;fontSize=30;entryX=0;entryY=0.5;entryDx=0;entryDy=0;entryPerimeter=0;" parent="1" source="O7vC9KH4D_OnZLa8_7qR-67" target="O7vC9KH4D_OnZLa8_7qR-81" edge="1">
          <mxGeometry relative="1" as="geometry" />
        </mxCell>
        <mxCell id="O7vC9KH4D_OnZLa8_7qR-86" value="" style="edgeStyle=orthogonalEdgeStyle;rounded=0;orthogonalLoop=1;jettySize=auto;html=1;fontSize=30;" parent="1" source="O7vC9KH4D_OnZLa8_7qR-67" target="O7vC9KH4D_OnZLa8_7qR-85" edge="1">
          <mxGeometry relative="1" as="geometry" />
        </mxCell>
        <mxCell id="O7vC9KH4D_OnZLa8_7qR-67" value="01.Source" style="aspect=fixed;html=1;points=[];align=center;image;fontSize=12;image=img/lib/azure2/general/Folder_Blank.svg;" parent="1" vertex="1">
          <mxGeometry x="60" y="-887" width="69" height="56.00000000000001" as="geometry" />
        </mxCell>
        <mxCell id="O7vC9KH4D_OnZLa8_7qR-69" value="09.Doc&lt;br&gt;" style="aspect=fixed;html=1;points=[];align=center;image;fontSize=12;image=img/lib/azure2/general/Folder_Blank.svg;" parent="1" vertex="1">
          <mxGeometry x="216" y="-311" width="69" height="56.00000000000001" as="geometry" />
        </mxCell>
        <mxCell id="O7vC9KH4D_OnZLa8_7qR-73" value="08.install&lt;br&gt;" style="aspect=fixed;html=1;points=[];align=center;image;fontSize=12;image=img/lib/azure2/general/Folder_Blank.svg;" parent="1" vertex="1">
          <mxGeometry x="216" y="-407" width="69" height="56.00000000000001" as="geometry" />
        </mxCell>
        <mxCell id="O7vC9KH4D_OnZLa8_7qR-75" value="05.Project" style="aspect=fixed;html=1;points=[];align=center;image;fontSize=12;image=img/lib/azure2/general/Folder_Blank.svg;" parent="1" vertex="1">
          <mxGeometry x="216" y="-503" width="69" height="56.00000000000001" as="geometry" />
        </mxCell>
        <mxCell id="O7vC9KH4D_OnZLa8_7qR-77" value="04.Resource" style="aspect=fixed;html=1;points=[];align=center;image;fontSize=12;image=img/lib/azure2/general/Folder_Blank.svg;" parent="1" vertex="1">
          <mxGeometry x="216" y="-599" width="69" height="56.00000000000001" as="geometry" />
        </mxCell>
        <mxCell id="O7vC9KH4D_OnZLa8_7qR-79" value="03.Module" style="aspect=fixed;html=1;points=[];align=center;image;fontSize=12;image=img/lib/azure2/general/Folder_Blank.svg;" parent="1" vertex="1">
          <mxGeometry x="216" y="-695" width="69" height="56.00000000000001" as="geometry" />
        </mxCell>
        <mxCell id="O7vC9KH4D_OnZLa8_7qR-81" value="02.Form" style="aspect=fixed;html=1;points=[];align=center;image;fontSize=12;image=img/lib/azure2/general/Folder_Blank.svg;" parent="1" vertex="1">
          <mxGeometry x="216" y="-791" width="69" height="56.00000000000001" as="geometry" />
        </mxCell>
        <mxCell id="O7vC9KH4D_OnZLa8_7qR-85" value="01.Class" style="aspect=fixed;html=1;points=[];align=center;image;fontSize=12;image=img/lib/azure2/general/Folder_Blank.svg;" parent="1" vertex="1">
          <mxGeometry x="216" y="-887" width="69" height="56.00000000000001" as="geometry" />
        </mxCell>
        <mxCell id="SiH_cbAGp95Dxo_diHbU-5" value="&lt;font style=&quot;font-size: 21px;&quot;&gt;더미 허브&lt;/font&gt;" style="fontColor=#0066CC;verticalAlign=top;verticalLabelPosition=bottom;labelPosition=center;align=center;html=1;outlineConnect=0;fillColor=#CCCCCC;strokeColor=#6881B3;gradientColor=none;gradientDirection=north;strokeWidth=2;shape=mxgraph.networks.hub;" parent="1" vertex="1">
          <mxGeometry x="9.5" y="1396" width="468" height="97" as="geometry" />
        </mxCell>
        <mxCell id="SiH_cbAGp95Dxo_diHbU-6" value="" style="shape=mxgraph.signs.tech.computer;html=1;pointerEvents=1;fillColor=#000000;strokeColor=none;verticalLabelPosition=bottom;verticalAlign=top;align=center;" parent="1" vertex="1">
          <mxGeometry x="194.5" y="1601" width="98" height="98" as="geometry" />
        </mxCell>
        <mxCell id="SiH_cbAGp95Dxo_diHbU-7" value="" style="shape=mxgraph.signs.tech.computer;html=1;pointerEvents=1;fillColor=#000000;strokeColor=none;verticalLabelPosition=bottom;verticalAlign=top;align=center;" parent="1" vertex="1">
          <mxGeometry x="-59" y="1592" width="98" height="98" as="geometry" />
        </mxCell>
        <mxCell id="SiH_cbAGp95Dxo_diHbU-8" value="" style="shape=mxgraph.signs.tech.computer;html=1;pointerEvents=1;fillColor=#000000;strokeColor=none;verticalLabelPosition=bottom;verticalAlign=top;align=center;" parent="1" vertex="1">
          <mxGeometry x="414" y="1604" width="98" height="98" as="geometry" />
        </mxCell>
        <mxCell id="SiH_cbAGp95Dxo_diHbU-11" value="&lt;font style=&quot;font-size: 22px;&quot;&gt;ARP&lt;/font&gt;" style="shape=flexArrow;endArrow=classic;startArrow=classic;html=1;rounded=0;exitX=0.5;exitY=0;exitDx=0;exitDy=0;exitPerimeter=0;" parent="1" source="SiH_cbAGp95Dxo_diHbU-6" edge="1">
          <mxGeometry width="100" height="100" relative="1" as="geometry">
            <mxPoint x="224" y="1656" as="sourcePoint" />
            <mxPoint x="244" y="1530" as="targetPoint" />
          </mxGeometry>
        </mxCell>
        <mxCell id="SiH_cbAGp95Dxo_diHbU-12" value="&lt;font style=&quot;font-size: 22px;&quot;&gt;ARP&lt;/font&gt;" style="shape=flexArrow;endArrow=classic;startArrow=classic;html=1;rounded=0;exitX=0.5;exitY=0;exitDx=0;exitDy=0;exitPerimeter=0;" parent="1" source="SiH_cbAGp95Dxo_diHbU-7" edge="1">
          <mxGeometry width="100" height="100" relative="1" as="geometry">
            <mxPoint x="254" y="1611" as="sourcePoint" />
            <mxPoint x="187" y="1525" as="targetPoint" />
          </mxGeometry>
        </mxCell>
        <mxCell id="SiH_cbAGp95Dxo_diHbU-13" value="&lt;font style=&quot;font-size: 22px;&quot;&gt;ARP&lt;/font&gt;" style="shape=flexArrow;endArrow=classic;startArrow=classic;html=1;rounded=0;exitX=0.5;exitY=0;exitDx=0;exitDy=0;exitPerimeter=0;" parent="1" source="SiH_cbAGp95Dxo_diHbU-8" edge="1">
          <mxGeometry width="100" height="100" relative="1" as="geometry">
            <mxPoint x="470" y="1604" as="sourcePoint" />
            <mxPoint x="315" y="1525" as="targetPoint" />
          </mxGeometry>
        </mxCell>
        <mxCell id="SiH_cbAGp95Dxo_diHbU-14" value="" style="shape=flexArrow;endArrow=classic;html=1;rounded=0;fontSize=21;endWidth=45.714285714285715;endSize=9.495238095238095;width=60;" parent="1" target="SiH_cbAGp95Dxo_diHbU-5" edge="1">
          <mxGeometry width="50" height="50" relative="1" as="geometry">
            <mxPoint x="244" y="1252" as="sourcePoint" />
            <mxPoint x="299" y="1289" as="targetPoint" />
          </mxGeometry>
        </mxCell>
        <mxCell id="d4y35INzo59LyWtLcMSd-1" value="&lt;span style=&quot;font-size: 21px;&quot;&gt;IPTIME&lt;br&gt;&lt;/span&gt;" style="fontColor=#0066CC;verticalAlign=top;verticalLabelPosition=bottom;labelPosition=center;align=center;html=1;outlineConnect=0;fillColor=#CCCCCC;strokeColor=#6881B3;gradientColor=none;gradientDirection=north;strokeWidth=2;shape=mxgraph.networks.hub;" parent="1" vertex="1">
          <mxGeometry x="65" y="1887" width="468" height="97" as="geometry" />
        </mxCell>
        <mxCell id="d4y35INzo59LyWtLcMSd-2" value="&lt;font style=&quot;font-size: 21px;&quot;&gt;더미 허브&lt;/font&gt;" style="fontColor=#0066CC;verticalAlign=top;verticalLabelPosition=bottom;labelPosition=center;align=center;html=1;outlineConnect=0;fillColor=#CCCCCC;strokeColor=#6881B3;gradientColor=none;gradientDirection=north;strokeWidth=2;shape=mxgraph.networks.hub;" parent="1" vertex="1">
          <mxGeometry x="29.5" y="1416" width="468" height="97" as="geometry" />
        </mxCell>
        <mxCell id="d4y35INzo59LyWtLcMSd-3" value="" style="shape=mxgraph.signs.tech.computer;html=1;pointerEvents=1;fillColor=#000000;strokeColor=none;verticalLabelPosition=bottom;verticalAlign=top;align=center;" parent="1" vertex="1">
          <mxGeometry x="-33" y="2068" width="98" height="98" as="geometry" />
        </mxCell>
        <mxCell id="d4y35INzo59LyWtLcMSd-4" value="" style="shape=mxgraph.signs.tech.computer;html=1;pointerEvents=1;fillColor=#000000;strokeColor=none;verticalLabelPosition=bottom;verticalAlign=top;align=center;" parent="1" vertex="1">
          <mxGeometry x="153" y="2068" width="98" height="98" as="geometry" />
        </mxCell>
        <mxCell id="d4y35INzo59LyWtLcMSd-5" value="" style="shape=mxgraph.signs.tech.computer;html=1;pointerEvents=1;fillColor=#000000;strokeColor=none;verticalLabelPosition=bottom;verticalAlign=top;align=center;" parent="1" vertex="1">
          <mxGeometry x="339" y="2068" width="98" height="98" as="geometry" />
        </mxCell>
        <mxCell id="d4y35INzo59LyWtLcMSd-6" value="DB SERVER" style="image;html=1;image=img/lib/clip_art/computers/Server_Rack_128x128.png" parent="1" vertex="1">
          <mxGeometry x="525" y="2068" width="80" height="80" as="geometry" />
        </mxCell>
        <mxCell id="d4y35INzo59LyWtLcMSd-8" value="" style="endArrow=classic;startArrow=classic;html=1;rounded=0;exitX=0.384;exitY=0.054;exitDx=0;exitDy=0;exitPerimeter=0;" parent="1" source="d4y35INzo59LyWtLcMSd-3" target="d4y35INzo59LyWtLcMSd-1" edge="1">
          <mxGeometry width="50" height="50" relative="1" as="geometry">
            <mxPoint x="225" y="2069" as="sourcePoint" />
            <mxPoint x="275" y="2019" as="targetPoint" />
          </mxGeometry>
        </mxCell>
        <mxCell id="d4y35INzo59LyWtLcMSd-10" value="" style="endArrow=classic;startArrow=classic;html=1;rounded=0;exitX=0.5;exitY=0;exitDx=0;exitDy=0;exitPerimeter=0;" parent="1" source="d4y35INzo59LyWtLcMSd-4" target="d4y35INzo59LyWtLcMSd-1" edge="1">
          <mxGeometry width="50" height="50" relative="1" as="geometry">
            <mxPoint x="15" y="2083" as="sourcePoint" />
            <mxPoint x="205" y="1994" as="targetPoint" />
          </mxGeometry>
        </mxCell>
        <mxCell id="d4y35INzo59LyWtLcMSd-12" value="" style="endArrow=classic;startArrow=classic;html=1;rounded=0;exitX=0.5;exitY=0;exitDx=0;exitDy=0;exitPerimeter=0;" parent="1" source="d4y35INzo59LyWtLcMSd-5" target="d4y35INzo59LyWtLcMSd-1" edge="1">
          <mxGeometry width="50" height="50" relative="1" as="geometry">
            <mxPoint x="222" y="2088" as="sourcePoint" />
            <mxPoint x="283" y="2004" as="targetPoint" />
          </mxGeometry>
        </mxCell>
        <mxCell id="d4y35INzo59LyWtLcMSd-13" value="" style="endArrow=classic;startArrow=classic;html=1;rounded=0;exitX=0.5;exitY=0;exitDx=0;exitDy=0;" parent="1" source="d4y35INzo59LyWtLcMSd-6" target="d4y35INzo59LyWtLcMSd-1" edge="1">
          <mxGeometry width="50" height="50" relative="1" as="geometry">
            <mxPoint x="232" y="2098" as="sourcePoint" />
            <mxPoint x="293" y="2014" as="targetPoint" />
          </mxGeometry>
        </mxCell>
        <mxCell id="d4y35INzo59LyWtLcMSd-14" value="&lt;span style=&quot;font-size: 21px;&quot;&gt;IPTIME&lt;br&gt;&lt;/span&gt;" style="fontColor=#0066CC;verticalAlign=top;verticalLabelPosition=bottom;labelPosition=center;align=center;html=1;outlineConnect=0;fillColor=#CCCCCC;strokeColor=#6881B3;gradientColor=none;gradientDirection=north;strokeWidth=2;shape=mxgraph.networks.hub;" parent="1" vertex="1">
          <mxGeometry x="-195" y="2427" width="468" height="97" as="geometry" />
        </mxCell>
        <mxCell id="d4y35INzo59LyWtLcMSd-15" value="" style="shape=mxgraph.signs.tech.computer;html=1;pointerEvents=1;fillColor=#000000;strokeColor=none;verticalLabelPosition=bottom;verticalAlign=top;align=center;" parent="1" vertex="1">
          <mxGeometry x="-293" y="2608" width="98" height="98" as="geometry" />
        </mxCell>
        <mxCell id="d4y35INzo59LyWtLcMSd-16" value="" style="shape=mxgraph.signs.tech.computer;html=1;pointerEvents=1;fillColor=#000000;strokeColor=none;verticalLabelPosition=bottom;verticalAlign=top;align=center;" parent="1" vertex="1">
          <mxGeometry x="-107" y="2608" width="98" height="98" as="geometry" />
        </mxCell>
        <mxCell id="d4y35INzo59LyWtLcMSd-17" value="" style="shape=mxgraph.signs.tech.computer;html=1;pointerEvents=1;fillColor=#000000;strokeColor=none;verticalLabelPosition=bottom;verticalAlign=top;align=center;" parent="1" vertex="1">
          <mxGeometry x="79" y="2608" width="98" height="98" as="geometry" />
        </mxCell>
        <mxCell id="d4y35INzo59LyWtLcMSd-18" value="" style="endArrow=classic;startArrow=classic;html=1;rounded=0;exitX=0.384;exitY=0.054;exitDx=0;exitDy=0;exitPerimeter=0;" parent="1" source="d4y35INzo59LyWtLcMSd-15" target="d4y35INzo59LyWtLcMSd-14" edge="1">
          <mxGeometry width="50" height="50" relative="1" as="geometry">
            <mxPoint x="-35" y="2609" as="sourcePoint" />
            <mxPoint x="15" y="2559" as="targetPoint" />
          </mxGeometry>
        </mxCell>
        <mxCell id="d4y35INzo59LyWtLcMSd-19" value="" style="endArrow=classic;startArrow=classic;html=1;rounded=0;exitX=0.5;exitY=0;exitDx=0;exitDy=0;exitPerimeter=0;" parent="1" source="d4y35INzo59LyWtLcMSd-16" target="d4y35INzo59LyWtLcMSd-14" edge="1">
          <mxGeometry width="50" height="50" relative="1" as="geometry">
            <mxPoint x="-245" y="2623" as="sourcePoint" />
            <mxPoint x="-55" y="2534" as="targetPoint" />
          </mxGeometry>
        </mxCell>
        <mxCell id="d4y35INzo59LyWtLcMSd-20" value="" style="endArrow=classic;startArrow=classic;html=1;rounded=0;exitX=0.5;exitY=0;exitDx=0;exitDy=0;exitPerimeter=0;" parent="1" source="d4y35INzo59LyWtLcMSd-17" target="d4y35INzo59LyWtLcMSd-14" edge="1">
          <mxGeometry width="50" height="50" relative="1" as="geometry">
            <mxPoint x="-38" y="2628" as="sourcePoint" />
            <mxPoint x="23" y="2544" as="targetPoint" />
          </mxGeometry>
        </mxCell>
        <mxCell id="d4y35INzo59LyWtLcMSd-22" value="DB SERVER&lt;br&gt;" style="image;html=1;image=img/lib/clip_art/computers/Server_Rack_128x128.png" parent="1" vertex="1">
          <mxGeometry x="536" y="2435.5" width="80" height="80" as="geometry" />
        </mxCell>
        <mxCell id="d4y35INzo59LyWtLcMSd-24" value="" style="image;html=1;image=img/lib/clip_art/networking/Firewall_02_128x128.png" parent="1" vertex="1">
          <mxGeometry x="357" y="2435.5" width="80" height="80" as="geometry" />
        </mxCell>
        <mxCell id="d4y35INzo59LyWtLcMSd-26" value="" style="endArrow=classic;startArrow=classic;html=1;rounded=0;exitX=1;exitY=0.5;exitDx=0;exitDy=0;exitPerimeter=0;" parent="1" source="d4y35INzo59LyWtLcMSd-14" target="d4y35INzo59LyWtLcMSd-22" edge="1">
          <mxGeometry width="50" height="50" relative="1" as="geometry">
            <mxPoint x="-245" y="2623" as="sourcePoint" />
            <mxPoint x="-55" y="2534" as="targetPoint" />
          </mxGeometry>
        </mxCell>
        <mxCell id="vRmhK02-MZokEOMF95cx-4" value="VM (UBUNTU)&lt;br&gt;www.www.www.001(nat ip)" style="rounded=0;whiteSpace=wrap;html=1;" parent="1" vertex="1">
          <mxGeometry x="-297" y="3401" width="269" height="69" as="geometry" />
        </mxCell>
        <mxCell id="vRmhK02-MZokEOMF95cx-5" value="내 PC&lt;br&gt;XXX.XXX.XXX.001&lt;br&gt;YYY.YYY.YYY.001(VIRTUAL BOX)" style="rounded=0;whiteSpace=wrap;html=1;" parent="1" vertex="1">
          <mxGeometry x="-297" y="3295" width="269" height="69" as="geometry" />
        </mxCell>
        <mxCell id="vRmhK02-MZokEOMF95cx-6" value="NAT" style="endArrow=none;html=1;rounded=0;entryX=0.5;entryY=1;entryDx=0;entryDy=0;" parent="1" source="vRmhK02-MZokEOMF95cx-4" target="vRmhK02-MZokEOMF95cx-5" edge="1">
          <mxGeometry width="50" height="50" relative="1" as="geometry">
            <mxPoint x="-126" y="3156" as="sourcePoint" />
            <mxPoint x="-76" y="3106" as="targetPoint" />
          </mxGeometry>
        </mxCell>
        <mxCell id="vRmhK02-MZokEOMF95cx-8" value="" style="endArrow=none;html=1;rounded=0;entryX=0.5;entryY=0;entryDx=0;entryDy=0;exitX=0.5;exitY=1;exitDx=0;exitDy=0;" parent="1" source="vRmhK02-MZokEOMF95cx-11" target="vRmhK02-MZokEOMF95cx-5" edge="1">
          <mxGeometry width="50" height="50" relative="1" as="geometry">
            <mxPoint x="-162.5" y="3257" as="sourcePoint" />
            <mxPoint x="-152" y="3374" as="targetPoint" />
          </mxGeometry>
        </mxCell>
        <mxCell id="vRmhK02-MZokEOMF95cx-13" style="edgeStyle=orthogonalEdgeStyle;rounded=0;orthogonalLoop=1;jettySize=auto;html=1;exitX=0.5;exitY=0;exitDx=0;exitDy=0;" parent="1" source="vRmhK02-MZokEOMF95cx-11" target="vRmhK02-MZokEOMF95cx-12" edge="1">
          <mxGeometry relative="1" as="geometry" />
        </mxCell>
        <mxCell id="vRmhK02-MZokEOMF95cx-11" value="GATEWAY&lt;br&gt;XXX.XXX.XXX.254" style="rounded=0;whiteSpace=wrap;html=1;" parent="1" vertex="1">
          <mxGeometry x="-297" y="3177" width="269" height="69" as="geometry" />
        </mxCell>
        <mxCell id="vRmhK02-MZokEOMF95cx-12" value="외부 네트워크" style="ellipse;shape=cloud;whiteSpace=wrap;html=1;" parent="1" vertex="1">
          <mxGeometry x="-296" y="2970" width="267" height="178" as="geometry" />
        </mxCell>
        <mxCell id="vRmhK02-MZokEOMF95cx-21" value="브릿지" style="edgeStyle=orthogonalEdgeStyle;rounded=0;orthogonalLoop=1;jettySize=auto;html=1;entryX=1;entryY=0.5;entryDx=0;entryDy=0;" parent="1" source="vRmhK02-MZokEOMF95cx-14" target="vRmhK02-MZokEOMF95cx-19" edge="1">
          <mxGeometry relative="1" as="geometry" />
        </mxCell>
        <mxCell id="vRmhK02-MZokEOMF95cx-14" value="VM (UBUNTU)&lt;br&gt;XXX.XXX.XXX.002" style="rounded=0;whiteSpace=wrap;html=1;" parent="1" vertex="1">
          <mxGeometry x="443" y="3290" width="269" height="69" as="geometry" />
        </mxCell>
        <mxCell id="vRmhK02-MZokEOMF95cx-15" value="내 PC&lt;br&gt;XXX.XXX.XXX.001&lt;br&gt;YYY.YYY.YYY.001 (VIRTUAL BOX)" style="rounded=0;whiteSpace=wrap;html=1;" parent="1" vertex="1">
          <mxGeometry x="115" y="3290" width="269" height="133" as="geometry" />
        </mxCell>
        <mxCell id="vRmhK02-MZokEOMF95cx-17" value="" style="endArrow=none;html=1;rounded=0;entryX=0.5;entryY=0;entryDx=0;entryDy=0;exitX=0.5;exitY=1;exitDx=0;exitDy=0;" parent="1" source="vRmhK02-MZokEOMF95cx-19" target="vRmhK02-MZokEOMF95cx-15" edge="1">
          <mxGeometry width="50" height="50" relative="1" as="geometry">
            <mxPoint x="249.5" y="3252" as="sourcePoint" />
            <mxPoint x="260" y="3369" as="targetPoint" />
          </mxGeometry>
        </mxCell>
        <mxCell id="vRmhK02-MZokEOMF95cx-18" style="edgeStyle=orthogonalEdgeStyle;rounded=0;orthogonalLoop=1;jettySize=auto;html=1;exitX=0.5;exitY=0;exitDx=0;exitDy=0;" parent="1" source="vRmhK02-MZokEOMF95cx-19" target="vRmhK02-MZokEOMF95cx-20" edge="1">
          <mxGeometry relative="1" as="geometry" />
        </mxCell>
        <mxCell id="vRmhK02-MZokEOMF95cx-19" value="GATEWAY&lt;br&gt;XXX.XXX.XXX.254" style="rounded=0;whiteSpace=wrap;html=1;" parent="1" vertex="1">
          <mxGeometry x="115" y="3172" width="269" height="69" as="geometry" />
        </mxCell>
        <mxCell id="vRmhK02-MZokEOMF95cx-20" value="외부 네트워크" style="ellipse;shape=cloud;whiteSpace=wrap;html=1;" parent="1" vertex="1">
          <mxGeometry x="116" y="2965" width="267" height="178" as="geometry" />
        </mxCell>
        <mxCell id="vRmhK02-MZokEOMF95cx-22" value="XXX.XXX.XXX.002로 접속됨" style="endArrow=classic;html=1;rounded=0;exitX=1;exitY=0.75;exitDx=0;exitDy=0;entryX=0.283;entryY=1.014;entryDx=0;entryDy=0;entryPerimeter=0;" parent="1" source="vRmhK02-MZokEOMF95cx-15" target="vRmhK02-MZokEOMF95cx-14" edge="1">
          <mxGeometry width="50" height="50" relative="1" as="geometry">
            <mxPoint x="391" y="3223" as="sourcePoint" />
            <mxPoint x="441" y="3173" as="targetPoint" />
          </mxGeometry>
        </mxCell>
        <mxCell id="vRmhK02-MZokEOMF95cx-23" value="멀로 접속하지" style="endArrow=classic;html=1;rounded=0;entryX=0.926;entryY=0.014;entryDx=0;entryDy=0;entryPerimeter=0;" parent="1" source="vRmhK02-MZokEOMF95cx-5" target="vRmhK02-MZokEOMF95cx-4" edge="1">
          <mxGeometry width="50" height="50" relative="1" as="geometry">
            <mxPoint x="394" y="3400" as="sourcePoint" />
            <mxPoint x="529" y="3370" as="targetPoint" />
          </mxGeometry>
        </mxCell>
        <mxCell id="Ko36sQwU__sT1bnLlzhW-4" value="서버" style="image;html=1;image=img/lib/clip_art/computers/Server_Rack_128x128.png" parent="1" vertex="1">
          <mxGeometry x="-206.25" y="3666.2" width="80" height="80" as="geometry" />
        </mxCell>
        <mxCell id="Ko36sQwU__sT1bnLlzhW-5" value="클라이언트" style="image;points=[];aspect=fixed;html=1;align=center;shadow=0;dashed=0;image=img/lib/allied_telesis/computer_and_terminals/Personal_Computer_with_Server.svg;" parent="1" vertex="1">
          <mxGeometry x="435.1" y="3668.2" width="62.400000000000006" height="62.400000000000006" as="geometry" />
        </mxCell>
        <mxCell id="Ko36sQwU__sT1bnLlzhW-6" value="" style="endArrow=none;html=1;rounded=0;" parent="1" edge="1">
          <mxGeometry width="50" height="50" relative="1" as="geometry">
            <mxPoint x="-168.25" y="4196" as="sourcePoint" />
            <mxPoint x="-168.25" y="3785" as="targetPoint" />
          </mxGeometry>
        </mxCell>
        <mxCell id="Ko36sQwU__sT1bnLlzhW-7" value="VPN-A" style="image;html=1;image=img/lib/clip_art/networking/Firewall_02_128x128.png" parent="1" vertex="1">
          <mxGeometry x="10.25" y="3662" width="80" height="80" as="geometry" />
        </mxCell>
        <mxCell id="Ko36sQwU__sT1bnLlzhW-8" value="VPN-B" style="image;html=1;image=img/lib/clip_art/networking/Firewall_02_128x128.png" parent="1" vertex="1">
          <mxGeometry x="223.5" y="3662" width="80" height="80" as="geometry" />
        </mxCell>
        <mxCell id="Ko36sQwU__sT1bnLlzhW-9" value="" style="endArrow=none;html=1;rounded=0;" parent="1" edge="1">
          <mxGeometry width="50" height="50" relative="1" as="geometry">
            <mxPoint x="49.75" y="4191" as="sourcePoint" />
            <mxPoint x="49.75" y="3770" as="targetPoint" />
          </mxGeometry>
        </mxCell>
        <mxCell id="Ko36sQwU__sT1bnLlzhW-10" value="" style="endArrow=none;html=1;rounded=0;" parent="1" edge="1">
          <mxGeometry width="50" height="50" relative="1" as="geometry">
            <mxPoint x="263" y="4188" as="sourcePoint" />
            <mxPoint x="263" y="3767" as="targetPoint" />
          </mxGeometry>
        </mxCell>
        <mxCell id="Ko36sQwU__sT1bnLlzhW-11" value="" style="endArrow=none;html=1;rounded=0;" parent="1" edge="1">
          <mxGeometry width="50" height="50" relative="1" as="geometry">
            <mxPoint x="465.8" y="4186" as="sourcePoint" />
            <mxPoint x="465.8" y="3765" as="targetPoint" />
          </mxGeometry>
        </mxCell>
        <mxCell id="Ko36sQwU__sT1bnLlzhW-12" value="" style="endArrow=classic;html=1;rounded=0;" parent="1" edge="1">
          <mxGeometry width="50" height="50" relative="1" as="geometry">
            <mxPoint x="467" y="3803" as="sourcePoint" />
            <mxPoint x="-168" y="3864" as="targetPoint" />
          </mxGeometry>
        </mxCell>
        <mxCell id="Ko36sQwU__sT1bnLlzhW-13" value="ACK&amp;nbsp;&lt;br&gt;A의 OUTBOUND나&amp;nbsp;&lt;br&gt;B의 INBOUND가 막고있어서 도달을 몬함" style="endArrow=classic;html=1;rounded=0;" parent="1" edge="1">
          <mxGeometry width="50" height="50" relative="1" as="geometry">
            <mxPoint x="-168" y="3888" as="sourcePoint" />
            <mxPoint x="467" y="3959" as="targetPoint" />
          </mxGeometry>
        </mxCell>
        <mxCell id="Ko36sQwU__sT1bnLlzhW-14" value="ACK가 안왔으니 끊겟음&lt;br&gt;RST" style="endArrow=classic;html=1;rounded=0;" parent="1" edge="1">
          <mxGeometry width="50" height="50" relative="1" as="geometry">
            <mxPoint x="466" y="3990" as="sourcePoint" />
            <mxPoint x="-169" y="4051" as="targetPoint" />
          </mxGeometry>
        </mxCell>
        <mxCell id="i3tsqpYIi10xafM15mEU-1" value="클라이언트 PC&amp;nbsp;" style="shape=mxgraph.signs.tech.computer;html=1;pointerEvents=1;fillColor=#000000;strokeColor=none;verticalLabelPosition=bottom;verticalAlign=top;align=center;" parent="1" vertex="1">
          <mxGeometry x="-215.25" y="4329" width="98" height="98" as="geometry" />
        </mxCell>
        <mxCell id="i3tsqpYIi10xafM15mEU-2" value="서버" style="image;html=1;image=img/lib/clip_art/computers/Server_Rack_128x128.png" parent="1" vertex="1">
          <mxGeometry x="-11" y="4338" width="80" height="80" as="geometry" />
        </mxCell>
        <mxCell id="i3tsqpYIi10xafM15mEU-3" value="1. 데이터 요청" style="endArrow=none;html=1;rounded=0;exitX=0.995;exitY=0.5;exitDx=0;exitDy=0;exitPerimeter=0;" parent="1" source="i3tsqpYIi10xafM15mEU-1" target="i3tsqpYIi10xafM15mEU-2" edge="1">
          <mxGeometry x="-0.0069" width="50" height="50" relative="1" as="geometry">
            <mxPoint x="-115" y="4453" as="sourcePoint" />
            <mxPoint x="173" y="4451" as="targetPoint" />
            <mxPoint as="offset" />
          </mxGeometry>
        </mxCell>
        <mxCell id="i3tsqpYIi10xafM15mEU-4" value="dynamic port&lt;br&gt;N~M&lt;br&gt;TIME_WAIT" style="whiteSpace=wrap;html=1;aspect=fixed;" parent="1" vertex="1">
          <mxGeometry x="69" y="4335" width="80" height="80" as="geometry" />
        </mxCell>
        <mxCell id="i3tsqpYIi10xafM15mEU-6" value="TIME_WAIT&lt;br&gt;(3005)&lt;br&gt;(03:53)지남" style="rounded=0;whiteSpace=wrap;html=1;" parent="1" vertex="1">
          <mxGeometry x="69" y="4415" width="80" height="55" as="geometry" />
        </mxCell>
        <mxCell id="i3tsqpYIi10xafM15mEU-9" value="DB" style="strokeWidth=2;html=1;shape=mxgraph.flowchart.database;whiteSpace=wrap;" parent="1" vertex="1">
          <mxGeometry x="251" y="4346" width="69" height="60" as="geometry" />
        </mxCell>
        <mxCell id="i3tsqpYIi10xafM15mEU-11" value="3. 연결, 데이터요청" style="endArrow=none;html=1;rounded=0;exitX=1;exitY=0.5;exitDx=0;exitDy=0;entryX=0;entryY=0.5;entryDx=0;entryDy=0;entryPerimeter=0;" parent="1" source="i3tsqpYIi10xafM15mEU-6" target="i3tsqpYIi10xafM15mEU-9" edge="1">
          <mxGeometry width="50" height="50" relative="1" as="geometry">
            <mxPoint x="96" y="4478" as="sourcePoint" />
            <mxPoint x="146" y="4428" as="targetPoint" />
          </mxGeometry>
        </mxCell>
        <mxCell id="i3tsqpYIi10xafM15mEU-12" value="2. 가용포트 확인&lt;br&gt;현재 모두 사용중이고, 가장 오래 대기중인 3005 포트&lt;br&gt;해제가 7초 남음 ------&amp;gt; 7초지연&amp;nbsp;" style="text;strokeColor=none;fillColor=none;html=1;whiteSpace=wrap;verticalAlign=middle;overflow=hidden;" parent="1" vertex="1">
          <mxGeometry x="-92.25" y="4487" width="285" height="46" as="geometry" />
        </mxCell>
        <mxCell id="5YyfXYIAru7YacfUnJ-7-1" value="클라이언트 PC&amp;nbsp;" style="shape=mxgraph.signs.tech.computer;html=1;pointerEvents=1;fillColor=#000000;strokeColor=none;verticalLabelPosition=bottom;verticalAlign=top;align=center;" parent="1" vertex="1">
          <mxGeometry x="-126.12" y="4657" width="98" height="98" as="geometry" />
        </mxCell>
        <mxCell id="5YyfXYIAru7YacfUnJ-7-2" value="서버" style="image;html=1;image=img/lib/clip_art/computers/Server_Rack_128x128.png" parent="1" vertex="1">
          <mxGeometry x="98" y="4666" width="80" height="80" as="geometry" />
        </mxCell>
        <mxCell id="5YyfXYIAru7YacfUnJ-7-3" value="TCP/UDP 연결" style="endArrow=none;html=1;rounded=0;exitX=1;exitY=0.5;exitDx=0;exitDy=0;" parent="1" source="5YyfXYIAru7YacfUnJ-7-4" target="5YyfXYIAru7YacfUnJ-7-5" edge="1">
          <mxGeometry x="-0.0515" y="15" width="50" height="50" relative="1" as="geometry">
            <mxPoint x="45" y="4832" as="sourcePoint" />
            <mxPoint x="104" y="4825" as="targetPoint" />
            <mxPoint as="offset" />
          </mxGeometry>
        </mxCell>
        <mxCell id="5YyfXYIAru7YacfUnJ-7-4" value="가용포트&lt;br&gt;12345 PORT" style="rounded=0;whiteSpace=wrap;html=1;" parent="1" vertex="1">
          <mxGeometry x="-131" y="4793" width="120" height="60" as="geometry" />
        </mxCell>
        <mxCell id="5YyfXYIAru7YacfUnJ-7-5" value="LISTEN&amp;nbsp;&lt;br&gt;1212 PORT" style="rounded=0;whiteSpace=wrap;html=1;" parent="1" vertex="1">
          <mxGeometry x="86" y="4793" width="120" height="60" as="geometry" />
        </mxCell>
        <mxCell id="9ALX-sLitY-2VKWW8MfH-1" value="" style="rounded=0;whiteSpace=wrap;html=1;" parent="1" vertex="1">
          <mxGeometry x="-195" y="5174" width="422" height="176" as="geometry" />
        </mxCell>
        <mxCell id="9ALX-sLitY-2VKWW8MfH-2" value="상담사 PC&lt;br&gt;" style="image;aspect=fixed;perimeter=ellipsePerimeter;html=1;align=center;shadow=0;dashed=0;spacingTop=3;image=img/lib/active_directory/workstation_client.svg;" parent="1" vertex="1">
          <mxGeometry x="-223" y="5143" width="42.5" height="50" as="geometry" />
        </mxCell>
        <mxCell id="9ALX-sLitY-2VKWW8MfH-4" value="SPONSOR APP&lt;br&gt;iexplore.exe&lt;br&gt;xplatform.exe&amp;nbsp;&lt;br&gt;..." style="rounded=0;whiteSpace=wrap;html=1;" parent="1" vertex="1">
          <mxGeometry x="-168" y="5193" width="150" height="137" as="geometry" />
        </mxCell>
        <mxCell id="9ALX-sLitY-2VKWW8MfH-5" value="NTSPhoneX.ocx" style="rounded=0;whiteSpace=wrap;html=1;" parent="1" vertex="1">
          <mxGeometry x="-145" y="5301" width="111" height="25" as="geometry" />
        </mxCell>
        <mxCell id="9ALX-sLitY-2VKWW8MfH-6" value="SoftPhone.exe&lt;br&gt;(7712 port listen)&lt;br&gt;&lt;br&gt;&lt;br&gt;" style="rounded=0;whiteSpace=wrap;html=1;" parent="1" vertex="1">
          <mxGeometry x="65" y="5190" width="136" height="90" as="geometry" />
        </mxCell>
        <mxCell id="9ALX-sLitY-2VKWW8MfH-7" value="tcp" style="endArrow=classic;startArrow=classic;html=1;rounded=0;exitX=1;exitY=0.5;exitDx=0;exitDy=0;entryX=0;entryY=0.5;entryDx=0;entryDy=0;" parent="1" source="9ALX-sLitY-2VKWW8MfH-5" target="9ALX-sLitY-2VKWW8MfH-6" edge="1">
          <mxGeometry width="50" height="50" relative="1" as="geometry">
            <mxPoint x="274" y="5383" as="sourcePoint" />
            <mxPoint x="324" y="5333" as="targetPoint" />
          </mxGeometry>
        </mxCell>
        <mxCell id="9ALX-sLitY-2VKWW8MfH-9" value="" style="rounded=0;whiteSpace=wrap;html=1;" parent="1" vertex="1">
          <mxGeometry x="-191.25" y="5378" width="195" height="145" as="geometry" />
        </mxCell>
        <mxCell id="9ALX-sLitY-2VKWW8MfH-8" value="APP SERVER&lt;br&gt;" style="image;aspect=fixed;perimeter=ellipsePerimeter;html=1;align=center;shadow=0;dashed=0;spacingTop=3;image=img/lib/active_directory/generic_server.svg;" parent="1" vertex="1">
          <mxGeometry x="-206.25" y="5350" width="28.000000000000004" height="50" as="geometry" />
        </mxCell>
        <mxCell id="9ALX-sLitY-2VKWW8MfH-11" value="DSAppServer.exe&lt;br&gt;(211 port listen)" style="rounded=0;whiteSpace=wrap;html=1;" parent="1" vertex="1">
          <mxGeometry x="-149.74999999999997" y="5431.5" width="120" height="64" as="geometry" />
        </mxCell>
        <mxCell id="9ALX-sLitY-2VKWW8MfH-12" value="data&lt;br&gt;snap" style="endArrow=classic;startArrow=classic;html=1;rounded=0;entryX=0.5;entryY=0;entryDx=0;entryDy=0;exitX=0.5;exitY=1;exitDx=0;exitDy=0;" parent="1" source="9ALX-sLitY-2VKWW8MfH-5" target="9ALX-sLitY-2VKWW8MfH-11" edge="1">
          <mxGeometry width="50" height="50" relative="1" as="geometry">
            <mxPoint x="105" y="5515" as="sourcePoint" />
            <mxPoint x="324" y="5333" as="targetPoint" />
          </mxGeometry>
        </mxCell>
        <mxCell id="9ALX-sLitY-2VKWW8MfH-14" value="" style="rounded=0;whiteSpace=wrap;html=1;" parent="1" vertex="1">
          <mxGeometry x="36.5" y="5382" width="197" height="141" as="geometry" />
        </mxCell>
        <mxCell id="9ALX-sLitY-2VKWW8MfH-13" value="NTS DB Server" style="image;aspect=fixed;perimeter=ellipsePerimeter;html=1;align=center;shadow=0;dashed=0;spacingTop=3;image=img/lib/active_directory/database_server.svg;" parent="1" vertex="1">
          <mxGeometry x="22.5" y="5350" width="41" height="50" as="geometry" />
        </mxCell>
        <mxCell id="9ALX-sLitY-2VKWW8MfH-15" value="mssql server&lt;br&gt;(1433, 8521 listen)" style="rounded=0;whiteSpace=wrap;html=1;" parent="1" vertex="1">
          <mxGeometry x="81.44999999999999" y="5433" width="123.1" height="61" as="geometry" />
        </mxCell>
        <mxCell id="9ALX-sLitY-2VKWW8MfH-16" value="" style="endArrow=classic;startArrow=classic;html=1;rounded=0;entryX=1;entryY=0.5;entryDx=0;entryDy=0;" parent="1" source="9ALX-sLitY-2VKWW8MfH-15" target="9ALX-sLitY-2VKWW8MfH-11" edge="1">
          <mxGeometry width="50" height="50" relative="1" as="geometry">
            <mxPoint x="274" y="5383" as="sourcePoint" />
            <mxPoint x="120" y="5637" as="targetPoint" />
          </mxGeometry>
        </mxCell>
        <mxCell id="9ALX-sLitY-2VKWW8MfH-17" value="" style="rounded=0;whiteSpace=wrap;html=1;" parent="1" vertex="1">
          <mxGeometry x="254.5" y="5174" width="195" height="176" as="geometry" />
        </mxCell>
        <mxCell id="9ALX-sLitY-2VKWW8MfH-18" value="telebus&lt;br&gt;(9022 port listen)" style="rounded=0;whiteSpace=wrap;html=1;" parent="1" vertex="1">
          <mxGeometry x="285" y="5222" width="120" height="64" as="geometry" />
        </mxCell>
        <mxCell id="9ALX-sLitY-2VKWW8MfH-19" value="PBX Server" style="image;aspect=fixed;perimeter=ellipsePerimeter;html=1;align=center;shadow=0;dashed=0;spacingTop=3;image=img/lib/active_directory/generic_server.svg;" parent="1" vertex="1">
          <mxGeometry x="247" y="5143" width="28.000000000000004" height="50" as="geometry" />
        </mxCell>
        <mxCell id="9ALX-sLitY-2VKWW8MfH-20" value="tcp" style="endArrow=classic;startArrow=classic;html=1;rounded=0;exitX=1;exitY=0.5;exitDx=0;exitDy=0;entryX=0;entryY=0.5;entryDx=0;entryDy=0;" parent="1" source="9ALX-sLitY-2VKWW8MfH-21" target="9ALX-sLitY-2VKWW8MfH-18" edge="1">
          <mxGeometry width="50" height="50" relative="1" as="geometry">
            <mxPoint x="274" y="5383" as="sourcePoint" />
            <mxPoint x="324" y="5333" as="targetPoint" />
          </mxGeometry>
        </mxCell>
        <mxCell id="9ALX-sLitY-2VKWW8MfH-21" value="TTCallX.ocx" style="rounded=0;whiteSpace=wrap;html=1;" parent="1" vertex="1">
          <mxGeometry x="90.25" y="5246.5" width="84.12" height="25" as="geometry" />
        </mxCell>
        <mxCell id="9ALX-sLitY-2VKWW8MfH-26" value="NTSPhoneX.ocx 통신/서비스 연계도" style="rounded=0;whiteSpace=wrap;html=1;" parent="1" vertex="1">
          <mxGeometry x="-251" y="5106" width="240" height="26" as="geometry" />
        </mxCell>
        <mxCell id="9ALX-sLitY-2VKWW8MfH-27" value="" style="rounded=0;whiteSpace=wrap;html=1;" parent="1" vertex="1">
          <mxGeometry x="-263" y="5594" width="736" height="436" as="geometry" />
        </mxCell>
        <mxCell id="9ALX-sLitY-2VKWW8MfH-28" value="" style="rounded=0;whiteSpace=wrap;html=1;" parent="1" vertex="1">
          <mxGeometry x="-195" y="5653" width="422" height="176" as="geometry" />
        </mxCell>
        <mxCell id="9ALX-sLitY-2VKWW8MfH-29" value="상담사 PC&lt;br&gt;" style="image;aspect=fixed;perimeter=ellipsePerimeter;html=1;align=center;shadow=0;dashed=0;spacingTop=3;image=img/lib/active_directory/workstation_client.svg;" parent="1" vertex="1">
          <mxGeometry x="-223" y="5622" width="42.5" height="50" as="geometry" />
        </mxCell>
        <mxCell id="9ALX-sLitY-2VKWW8MfH-30" value="SPONSOR APP&lt;br&gt;iexplore.exe&lt;br&gt;xplatform.exe&amp;nbsp;&lt;br&gt;...&lt;br&gt;&lt;br&gt;" style="rounded=0;whiteSpace=wrap;html=1;align=left;" parent="1" vertex="1">
          <mxGeometry x="-168" y="5672" width="376" height="137" as="geometry" />
        </mxCell>
        <mxCell id="9ALX-sLitY-2VKWW8MfH-31" value="TelebuscallCtrl.ocx&lt;br&gt;&lt;br&gt;&lt;br&gt;&lt;br&gt;" style="rounded=0;whiteSpace=wrap;html=1;" parent="1" vertex="1">
          <mxGeometry x="-55" y="5690" width="242" height="95" as="geometry" />
        </mxCell>
        <mxCell id="9ALX-sLitY-2VKWW8MfH-34" value="" style="rounded=0;whiteSpace=wrap;html=1;" parent="1" vertex="1">
          <mxGeometry x="-191.25" y="5857" width="195" height="145" as="geometry" />
        </mxCell>
        <mxCell id="9ALX-sLitY-2VKWW8MfH-35" value="APP SERVER&lt;br&gt;" style="image;aspect=fixed;perimeter=ellipsePerimeter;html=1;align=center;shadow=0;dashed=0;spacingTop=3;image=img/lib/active_directory/generic_server.svg;" parent="1" vertex="1">
          <mxGeometry x="-206.25" y="5829" width="28.000000000000004" height="50" as="geometry" />
        </mxCell>
        <mxCell id="9ALX-sLitY-2VKWW8MfH-36" value="PDS_IF_SERVER.exe&lt;br&gt;(8849 port listen)" style="rounded=0;whiteSpace=wrap;html=1;" parent="1" vertex="1">
          <mxGeometry x="-148.12" y="5877" width="138.12" height="91" as="geometry" />
        </mxCell>
        <mxCell id="9ALX-sLitY-2VKWW8MfH-37" value="tcp" style="endArrow=classic;startArrow=classic;html=1;rounded=0;entryX=0.5;entryY=0;entryDx=0;entryDy=0;exitX=0.5;exitY=1;exitDx=0;exitDy=0;" parent="1" source="9ALX-sLitY-2VKWW8MfH-31" target="9ALX-sLitY-2VKWW8MfH-36" edge="1">
          <mxGeometry width="50" height="50" relative="1" as="geometry">
            <mxPoint x="105" y="5994" as="sourcePoint" />
            <mxPoint x="324" y="5812" as="targetPoint" />
          </mxGeometry>
        </mxCell>
        <mxCell id="9ALX-sLitY-2VKWW8MfH-38" value="" style="rounded=0;whiteSpace=wrap;html=1;" parent="1" vertex="1">
          <mxGeometry x="36.5" y="5861" width="197" height="141" as="geometry" />
        </mxCell>
        <mxCell id="9ALX-sLitY-2VKWW8MfH-39" value="NTS DB Server" style="image;aspect=fixed;perimeter=ellipsePerimeter;html=1;align=center;shadow=0;dashed=0;spacingTop=3;image=img/lib/active_directory/database_server.svg;" parent="1" vertex="1">
          <mxGeometry x="22.5" y="5829" width="41" height="50" as="geometry" />
        </mxCell>
        <mxCell id="9ALX-sLitY-2VKWW8MfH-40" value="mssql server&lt;br&gt;(1433, 8521 listen)" style="rounded=0;whiteSpace=wrap;html=1;" parent="1" vertex="1">
          <mxGeometry x="90.24999999999999" y="5892" width="123.1" height="61" as="geometry" />
        </mxCell>
        <mxCell id="9ALX-sLitY-2VKWW8MfH-41" value="" style="endArrow=classic;startArrow=classic;html=1;rounded=0;entryX=1;entryY=0.5;entryDx=0;entryDy=0;" parent="1" source="9ALX-sLitY-2VKWW8MfH-40" target="9ALX-sLitY-2VKWW8MfH-36" edge="1">
          <mxGeometry width="50" height="50" relative="1" as="geometry">
            <mxPoint x="274" y="5862" as="sourcePoint" />
            <mxPoint x="120" y="6116" as="targetPoint" />
          </mxGeometry>
        </mxCell>
        <mxCell id="9ALX-sLitY-2VKWW8MfH-42" value="" style="rounded=0;whiteSpace=wrap;html=1;" parent="1" vertex="1">
          <mxGeometry x="254.5" y="5653" width="195" height="176" as="geometry" />
        </mxCell>
        <mxCell id="9ALX-sLitY-2VKWW8MfH-43" value="telebus&lt;br&gt;(9022 port listen)" style="rounded=0;whiteSpace=wrap;html=1;" parent="1" vertex="1">
          <mxGeometry x="285" y="5701" width="120" height="64" as="geometry" />
        </mxCell>
        <mxCell id="9ALX-sLitY-2VKWW8MfH-44" value="PBX Server" style="image;aspect=fixed;perimeter=ellipsePerimeter;html=1;align=center;shadow=0;dashed=0;spacingTop=3;image=img/lib/active_directory/generic_server.svg;" parent="1" vertex="1">
          <mxGeometry x="247" y="5622" width="28.000000000000004" height="50" as="geometry" />
        </mxCell>
        <mxCell id="9ALX-sLitY-2VKWW8MfH-47" value="TelebusCallCtrl.ocx 통신/서비스 연계도" style="rounded=0;whiteSpace=wrap;html=1;" parent="1" vertex="1">
          <mxGeometry x="-251" y="5585" width="240" height="26" as="geometry" />
        </mxCell>
        <mxCell id="9ALX-sLitY-2VKWW8MfH-50" value="TTCallX.ocx" style="rounded=0;whiteSpace=wrap;html=1;" parent="1" vertex="1">
          <mxGeometry x="23.939999999999998" y="5728" width="84.12" height="25" as="geometry" />
        </mxCell>
        <mxCell id="9ALX-sLitY-2VKWW8MfH-51" value="tcp" style="endArrow=classic;startArrow=classic;html=1;rounded=0;exitX=1;exitY=0.5;exitDx=0;exitDy=0;entryX=0;entryY=0.5;entryDx=0;entryDy=0;" parent="1" source="9ALX-sLitY-2VKWW8MfH-50" target="9ALX-sLitY-2VKWW8MfH-43" edge="1">
          <mxGeometry width="50" height="50" relative="1" as="geometry">
            <mxPoint x="184" y="5269" as="sourcePoint" />
            <mxPoint x="295" y="5264" as="targetPoint" />
          </mxGeometry>
        </mxCell>
        <mxCell id="9ALX-sLitY-2VKWW8MfH-52" value="" style="rounded=0;whiteSpace=wrap;html=1;" parent="1" vertex="1">
          <mxGeometry x="254.5" y="5860" width="195" height="143" as="geometry" />
        </mxCell>
        <mxCell id="9ALX-sLitY-2VKWW8MfH-53" value="PBX Server" style="image;aspect=fixed;perimeter=ellipsePerimeter;html=1;align=center;shadow=0;dashed=0;spacingTop=3;image=img/lib/active_directory/generic_server.svg;" parent="1" vertex="1">
          <mxGeometry x="247" y="5829" width="28.000000000000004" height="50" as="geometry" />
        </mxCell>
        <mxCell id="9ALX-sLitY-2VKWW8MfH-54" value="telebus(PDS)&lt;br&gt;(16002 port listen)" style="rounded=0;whiteSpace=wrap;html=1;" parent="1" vertex="1">
          <mxGeometry x="285" y="5912" width="120" height="64" as="geometry" />
        </mxCell>
        <mxCell id="9ALX-sLitY-2VKWW8MfH-55" value="tcp" style="endArrow=classic;startArrow=classic;html=1;rounded=0;entryX=0;entryY=0.5;entryDx=0;entryDy=0;exitX=0.75;exitY=1;exitDx=0;exitDy=0;" parent="1" source="9ALX-sLitY-2VKWW8MfH-31" target="9ALX-sLitY-2VKWW8MfH-54" edge="1">
          <mxGeometry width="50" height="50" relative="1" as="geometry">
            <mxPoint x="76" y="5795" as="sourcePoint" />
            <mxPoint x="-69" y="5887" as="targetPoint" />
          </mxGeometry>
        </mxCell>
        <mxCell id="9ALX-sLitY-2VKWW8MfH-56" value="" style="rounded=0;whiteSpace=wrap;html=1;" parent="1" vertex="1">
          <mxGeometry x="-259" y="6081" width="736" height="436" as="geometry" />
        </mxCell>
        <mxCell id="9ALX-sLitY-2VKWW8MfH-57" value="" style="rounded=0;whiteSpace=wrap;html=1;" parent="1" vertex="1">
          <mxGeometry x="-191" y="6140" width="422" height="176" as="geometry" />
        </mxCell>
        <mxCell id="9ALX-sLitY-2VKWW8MfH-58" value="상담사 PC&lt;br&gt;" style="image;aspect=fixed;perimeter=ellipsePerimeter;html=1;align=center;shadow=0;dashed=0;spacingTop=3;image=img/lib/active_directory/workstation_client.svg;" parent="1" vertex="1">
          <mxGeometry x="-219" y="6109" width="42.5" height="50" as="geometry" />
        </mxCell>
        <mxCell id="9ALX-sLitY-2VKWW8MfH-59" value="SPONSOR APP&lt;br&gt;iexplore.exe&lt;br&gt;crome.exe&lt;br&gt;xplatform.exe&amp;nbsp;&lt;br&gt;...&lt;br&gt;" style="rounded=0;whiteSpace=wrap;html=1;" parent="1" vertex="1">
          <mxGeometry x="-164" y="6159" width="150" height="137" as="geometry" />
        </mxCell>
        <mxCell id="9ALX-sLitY-2VKWW8MfH-61" value="NTS_CTIAgent.exe&lt;br&gt;(7712 port listen)&lt;br&gt;&lt;br&gt;" style="rounded=0;whiteSpace=wrap;html=1;" parent="1" vertex="1">
          <mxGeometry x="60" y="6180" width="136" height="90" as="geometry" />
        </mxCell>
        <mxCell id="9ALX-sLitY-2VKWW8MfH-63" value="" style="rounded=0;whiteSpace=wrap;html=1;" parent="1" vertex="1">
          <mxGeometry x="-187.25" y="6344" width="195" height="145" as="geometry" />
        </mxCell>
        <mxCell id="9ALX-sLitY-2VKWW8MfH-64" value="APP SERVER&lt;br&gt;" style="image;aspect=fixed;perimeter=ellipsePerimeter;html=1;align=center;shadow=0;dashed=0;spacingTop=3;image=img/lib/active_directory/generic_server.svg;" parent="1" vertex="1">
          <mxGeometry x="-202.25" y="6316" width="28.000000000000004" height="50" as="geometry" />
        </mxCell>
        <mxCell id="9ALX-sLitY-2VKWW8MfH-65" value="DBWareService.exe&lt;br&gt;(7878 port listen)" style="rounded=0;whiteSpace=wrap;html=1;" parent="1" vertex="1">
          <mxGeometry x="-146.15" y="6363" width="120" height="84" as="geometry" />
        </mxCell>
        <mxCell id="9ALX-sLitY-2VKWW8MfH-67" value="" style="rounded=0;whiteSpace=wrap;html=1;" parent="1" vertex="1">
          <mxGeometry x="40.5" y="6348" width="197" height="141" as="geometry" />
        </mxCell>
        <mxCell id="9ALX-sLitY-2VKWW8MfH-68" value="NTS DB Server" style="image;aspect=fixed;perimeter=ellipsePerimeter;html=1;align=center;shadow=0;dashed=0;spacingTop=3;image=img/lib/active_directory/database_server.svg;" parent="1" vertex="1">
          <mxGeometry x="26.5" y="6316" width="41" height="50" as="geometry" />
        </mxCell>
        <mxCell id="9ALX-sLitY-2VKWW8MfH-69" value="mssql server&lt;br&gt;(1433, 8521 listen)" style="rounded=0;whiteSpace=wrap;html=1;" parent="1" vertex="1">
          <mxGeometry x="92.89999999999999" y="6374.5" width="123.1" height="61" as="geometry" />
        </mxCell>
        <mxCell id="9ALX-sLitY-2VKWW8MfH-70" value="" style="endArrow=classic;startArrow=classic;html=1;rounded=0;entryX=1;entryY=0.5;entryDx=0;entryDy=0;" parent="1" source="9ALX-sLitY-2VKWW8MfH-69" target="9ALX-sLitY-2VKWW8MfH-65" edge="1">
          <mxGeometry width="50" height="50" relative="1" as="geometry">
            <mxPoint x="278" y="6349" as="sourcePoint" />
            <mxPoint x="124" y="6603" as="targetPoint" />
          </mxGeometry>
        </mxCell>
        <mxCell id="9ALX-sLitY-2VKWW8MfH-71" value="" style="rounded=0;whiteSpace=wrap;html=1;" parent="1" vertex="1">
          <mxGeometry x="258.5" y="6140" width="195" height="176" as="geometry" />
        </mxCell>
        <mxCell id="9ALX-sLitY-2VKWW8MfH-72" value="telebus&lt;br&gt;(9022 port listen)" style="rounded=0;whiteSpace=wrap;html=1;" parent="1" vertex="1">
          <mxGeometry x="292" y="6218.5" width="120" height="64" as="geometry" />
        </mxCell>
        <mxCell id="9ALX-sLitY-2VKWW8MfH-73" value="PBX Server" style="image;aspect=fixed;perimeter=ellipsePerimeter;html=1;align=center;shadow=0;dashed=0;spacingTop=3;image=img/lib/active_directory/generic_server.svg;" parent="1" vertex="1">
          <mxGeometry x="251" y="6109" width="28.000000000000004" height="50" as="geometry" />
        </mxCell>
        <mxCell id="9ALX-sLitY-2VKWW8MfH-74" value="tcp" style="endArrow=classic;startArrow=classic;html=1;rounded=0;exitX=1;exitY=0.5;exitDx=0;exitDy=0;entryX=0;entryY=0.5;entryDx=0;entryDy=0;" parent="1" source="9ALX-sLitY-2VKWW8MfH-75" target="9ALX-sLitY-2VKWW8MfH-72" edge="1">
          <mxGeometry width="50" height="50" relative="1" as="geometry">
            <mxPoint x="278" y="6349" as="sourcePoint" />
            <mxPoint x="328" y="6299" as="targetPoint" />
          </mxGeometry>
        </mxCell>
        <mxCell id="9ALX-sLitY-2VKWW8MfH-75" value="TTCallX.ocx" style="rounded=0;whiteSpace=wrap;html=1;" parent="1" vertex="1">
          <mxGeometry x="85.45" y="6238" width="84.12" height="25" as="geometry" />
        </mxCell>
        <mxCell id="9ALX-sLitY-2VKWW8MfH-76" value="NTS_CTIAgent.exe 통신/서비스 연계도" style="rounded=0;whiteSpace=wrap;html=1;" parent="1" vertex="1">
          <mxGeometry x="-247" y="6072" width="240" height="26" as="geometry" />
        </mxCell>
        <mxCell id="9ALX-sLitY-2VKWW8MfH-62" value="tcp" style="endArrow=classic;startArrow=classic;html=1;rounded=0;exitX=0.5;exitY=1;exitDx=0;exitDy=0;entryX=0.5;entryY=0;entryDx=0;entryDy=0;" parent="1" source="9ALX-sLitY-2VKWW8MfH-61" target="9ALX-sLitY-2VKWW8MfH-65" edge="1">
          <mxGeometry width="50" height="50" relative="1" as="geometry">
            <mxPoint x="-30" y="6279.5" as="sourcePoint" />
            <mxPoint x="328" y="6299" as="targetPoint" />
          </mxGeometry>
        </mxCell>
        <mxCell id="9ALX-sLitY-2VKWW8MfH-77" value="web&lt;br&gt;socket" style="endArrow=classic;startArrow=classic;html=1;rounded=0;exitX=0;exitY=0.5;exitDx=0;exitDy=0;entryX=1;entryY=0.5;entryDx=0;entryDy=0;" parent="1" source="9ALX-sLitY-2VKWW8MfH-61" target="9ALX-sLitY-2VKWW8MfH-59" edge="1">
          <mxGeometry width="50" height="50" relative="1" as="geometry">
            <mxPoint x="147" y="6256" as="sourcePoint" />
            <mxPoint x="-76" y="6373" as="targetPoint" />
          </mxGeometry>
        </mxCell>
        <mxCell id="9ALX-sLitY-2VKWW8MfH-78" value="" style="rounded=0;whiteSpace=wrap;html=1;" parent="1" vertex="1">
          <mxGeometry x="258.25" y="6346" width="195" height="143" as="geometry" />
        </mxCell>
        <mxCell id="9ALX-sLitY-2VKWW8MfH-79" value="PBX Server" style="image;aspect=fixed;perimeter=ellipsePerimeter;html=1;align=center;shadow=0;dashed=0;spacingTop=3;image=img/lib/active_directory/generic_server.svg;" parent="1" vertex="1">
          <mxGeometry x="250.75" y="6315" width="28.000000000000004" height="50" as="geometry" />
        </mxCell>
        <mxCell id="9ALX-sLitY-2VKWW8MfH-80" value="telebus(PDS)&lt;br&gt;(16002 port listen)" style="rounded=0;whiteSpace=wrap;html=1;" parent="1" vertex="1">
          <mxGeometry x="288.75" y="6398" width="120" height="64" as="geometry" />
        </mxCell>
        <mxCell id="9ALX-sLitY-2VKWW8MfH-81" value="tcp" style="endArrow=classic;startArrow=classic;html=1;rounded=0;entryX=0;entryY=0.5;entryDx=0;entryDy=0;exitX=0.75;exitY=1;exitDx=0;exitDy=0;" parent="1" source="9ALX-sLitY-2VKWW8MfH-61" target="9ALX-sLitY-2VKWW8MfH-80" edge="1">
          <mxGeometry width="50" height="50" relative="1" as="geometry">
            <mxPoint x="137" y="5795" as="sourcePoint" />
            <mxPoint x="295" y="5954" as="targetPoint" />
          </mxGeometry>
        </mxCell>
        <mxCell id="IRGMZqguu5qLHo-idfvu-1" value="" style="rounded=0;whiteSpace=wrap;html=1;" parent="1" vertex="1">
          <mxGeometry x="-268" y="6609" width="736" height="436" as="geometry" />
        </mxCell>
        <mxCell id="IRGMZqguu5qLHo-idfvu-2" value="" style="rounded=0;whiteSpace=wrap;html=1;" parent="1" vertex="1">
          <mxGeometry x="-200" y="6668" width="422" height="176" as="geometry" />
        </mxCell>
        <mxCell id="IRGMZqguu5qLHo-idfvu-4" value="CallCenter.exe" style="rounded=0;whiteSpace=wrap;html=1;" parent="1" vertex="1">
          <mxGeometry x="-54" y="6687.5" width="88" height="64" as="geometry" />
        </mxCell>
        <mxCell id="IRGMZqguu5qLHo-idfvu-6" value="" style="rounded=0;whiteSpace=wrap;html=1;" parent="1" vertex="1">
          <mxGeometry x="-196.25" y="6872" width="195" height="145" as="geometry" />
        </mxCell>
        <mxCell id="IRGMZqguu5qLHo-idfvu-7" value="APP SERVER&lt;br&gt;" style="image;aspect=fixed;perimeter=ellipsePerimeter;html=1;align=center;shadow=0;dashed=0;spacingTop=3;image=img/lib/active_directory/generic_server.svg;" parent="1" vertex="1">
          <mxGeometry x="-211.25" y="6844" width="28.000000000000004" height="50" as="geometry" />
        </mxCell>
        <mxCell id="IRGMZqguu5qLHo-idfvu-9" value="" style="rounded=0;whiteSpace=wrap;html=1;" parent="1" vertex="1">
          <mxGeometry x="31.5" y="6876" width="197" height="141" as="geometry" />
        </mxCell>
        <mxCell id="IRGMZqguu5qLHo-idfvu-10" value="NTS DB Server" style="image;aspect=fixed;perimeter=ellipsePerimeter;html=1;align=center;shadow=0;dashed=0;spacingTop=3;image=img/lib/active_directory/database_server.svg;" parent="1" vertex="1">
          <mxGeometry x="17.5" y="6844" width="41" height="50" as="geometry" />
        </mxCell>
        <mxCell id="IRGMZqguu5qLHo-idfvu-13" value="" style="rounded=0;whiteSpace=wrap;html=1;" parent="1" vertex="1">
          <mxGeometry x="249.5" y="6668" width="195" height="176" as="geometry" />
        </mxCell>
        <mxCell id="IRGMZqguu5qLHo-idfvu-14" value="telebus&lt;br&gt;(9022 port listen)" style="rounded=0;whiteSpace=wrap;html=1;" parent="1" vertex="1">
          <mxGeometry x="283" y="6746.5" width="120" height="64" as="geometry" />
        </mxCell>
        <mxCell id="IRGMZqguu5qLHo-idfvu-15" value="PBX Server" style="image;aspect=fixed;perimeter=ellipsePerimeter;html=1;align=center;shadow=0;dashed=0;spacingTop=3;image=img/lib/active_directory/generic_server.svg;" parent="1" vertex="1">
          <mxGeometry x="242" y="6637" width="28.000000000000004" height="50" as="geometry" />
        </mxCell>
        <mxCell id="IRGMZqguu5qLHo-idfvu-18" value="CALLCENTER 프로그램 연계도" style="rounded=0;whiteSpace=wrap;html=1;" parent="1" vertex="1">
          <mxGeometry x="-256" y="6600" width="240" height="26" as="geometry" />
        </mxCell>
        <mxCell id="IRGMZqguu5qLHo-idfvu-21" value="" style="rounded=0;whiteSpace=wrap;html=1;" parent="1" vertex="1">
          <mxGeometry x="249.25" y="6874" width="195" height="143" as="geometry" />
        </mxCell>
        <mxCell id="IRGMZqguu5qLHo-idfvu-22" value="PBX Server" style="image;aspect=fixed;perimeter=ellipsePerimeter;html=1;align=center;shadow=0;dashed=0;spacingTop=3;image=img/lib/active_directory/generic_server.svg;" parent="1" vertex="1">
          <mxGeometry x="241.75" y="6843" width="28.000000000000004" height="50" as="geometry" />
        </mxCell>
        <mxCell id="IRGMZqguu5qLHo-idfvu-23" value="telebus(PDS)&lt;br&gt;(16002 port listen)" style="rounded=0;whiteSpace=wrap;html=1;" parent="1" vertex="1">
          <mxGeometry x="279.75" y="6926" width="120" height="64" as="geometry" />
        </mxCell>
        <mxCell id="IRGMZqguu5qLHo-idfvu-25" value="Monitoriing" style="rounded=0;whiteSpace=wrap;html=1;" parent="1" vertex="1">
          <mxGeometry x="59" y="6687.5" width="150" height="35" as="geometry" />
        </mxCell>
        <mxCell id="IRGMZqguu5qLHo-idfvu-26" value="TTMessenger.exe" style="rounded=0;whiteSpace=wrap;html=1;" parent="1" vertex="1">
          <mxGeometry x="58" y="6739" width="150" height="35" as="geometry" />
        </mxCell>
        <mxCell id="IRGMZqguu5qLHo-idfvu-27" value="HMPlayer.exe" style="rounded=0;whiteSpace=wrap;html=1;" parent="1" vertex="1">
          <mxGeometry x="58" y="6789.5" width="150" height="35" as="geometry" />
        </mxCell>
        <mxCell id="IRGMZqguu5qLHo-idfvu-28" value="softphone.exe" style="rounded=0;whiteSpace=wrap;html=1;" parent="1" vertex="1">
          <mxGeometry x="-55" y="6760.5" width="89" height="64" as="geometry" />
        </mxCell>
        <mxCell id="IRGMZqguu5qLHo-idfvu-29" value="ContactCenter.exe" style="rounded=0;whiteSpace=wrap;html=1;" parent="1" vertex="1">
          <mxGeometry x="-185.5" y="6687.5" width="107.5" height="139.5" as="geometry" />
        </mxCell>
        <mxCell id="IRGMZqguu5qLHo-idfvu-3" value="상담사 PC&lt;br&gt;" style="image;aspect=fixed;perimeter=ellipsePerimeter;html=1;align=center;shadow=0;dashed=0;spacingTop=3;image=img/lib/active_directory/workstation_client.svg;" parent="1" vertex="1">
          <mxGeometry x="-228" y="6637" width="42.5" height="50" as="geometry" />
        </mxCell>
        <mxCell id="IRGMZqguu5qLHo-idfvu-30" value="EXEC" style="endArrow=classic;html=1;rounded=0;exitX=1;exitY=0.5;exitDx=0;exitDy=0;entryX=0;entryY=0.5;entryDx=0;entryDy=0;" parent="1" source="IRGMZqguu5qLHo-idfvu-29" target="IRGMZqguu5qLHo-idfvu-4" edge="1">
          <mxGeometry width="50" height="50" relative="1" as="geometry">
            <mxPoint x="216" y="6804" as="sourcePoint" />
            <mxPoint x="266" y="6754" as="targetPoint" />
          </mxGeometry>
        </mxCell>
        <mxCell id="IRGMZqguu5qLHo-idfvu-31" value="EXEC" style="endArrow=classic;html=1;rounded=0;exitX=1;exitY=0.5;exitDx=0;exitDy=0;entryX=0;entryY=0.5;entryDx=0;entryDy=0;" parent="1" source="IRGMZqguu5qLHo-idfvu-29" target="IRGMZqguu5qLHo-idfvu-28" edge="1">
          <mxGeometry width="50" height="50" relative="1" as="geometry">
            <mxPoint x="-68" y="6767" as="sourcePoint" />
            <mxPoint x="-44" y="6730" as="targetPoint" />
          </mxGeometry>
        </mxCell>
        <mxCell id="IRGMZqguu5qLHo-idfvu-32" value="" style="endArrow=classic;html=1;rounded=0;exitX=1;exitY=0.5;exitDx=0;exitDy=0;entryX=0;entryY=0.5;entryDx=0;entryDy=0;" parent="1" source="IRGMZqguu5qLHo-idfvu-4" target="IRGMZqguu5qLHo-idfvu-25" edge="1">
          <mxGeometry width="50" height="50" relative="1" as="geometry">
            <mxPoint x="-58" y="6777" as="sourcePoint" />
            <mxPoint x="-34" y="6740" as="targetPoint" />
          </mxGeometry>
        </mxCell>
        <mxCell id="IRGMZqguu5qLHo-idfvu-33" value="" style="endArrow=classic;html=1;rounded=0;exitX=1;exitY=0.5;exitDx=0;exitDy=0;entryX=0;entryY=0.5;entryDx=0;entryDy=0;" parent="1" source="IRGMZqguu5qLHo-idfvu-4" target="IRGMZqguu5qLHo-idfvu-26" edge="1">
          <mxGeometry width="50" height="50" relative="1" as="geometry">
            <mxPoint x="-48" y="6787" as="sourcePoint" />
            <mxPoint x="-24" y="6750" as="targetPoint" />
          </mxGeometry>
        </mxCell>
        <mxCell id="IRGMZqguu5qLHo-idfvu-34" value="" style="endArrow=classic;html=1;rounded=0;exitX=1;exitY=0.5;exitDx=0;exitDy=0;entryX=0;entryY=0.5;entryDx=0;entryDy=0;" parent="1" source="IRGMZqguu5qLHo-idfvu-4" target="IRGMZqguu5qLHo-idfvu-27" edge="1">
          <mxGeometry width="50" height="50" relative="1" as="geometry">
            <mxPoint x="-38" y="6797" as="sourcePoint" />
            <mxPoint x="-14" y="6760" as="targetPoint" />
          </mxGeometry>
        </mxCell>
        <mxCell id="IRGMZqguu5qLHo-idfvu-35" value="mssql server&lt;br&gt;(1433, 8521 listen)" style="rounded=0;whiteSpace=wrap;html=1;" parent="1" vertex="1">
          <mxGeometry x="86" y="6905" width="123.1" height="61" as="geometry" />
        </mxCell>
        <mxCell id="IRGMZqguu5qLHo-idfvu-36" value="" style="endArrow=classic;startArrow=classic;html=1;rounded=0;exitX=0.5;exitY=1;exitDx=0;exitDy=0;entryX=0.5;entryY=0;entryDx=0;entryDy=0;" parent="1" source="IRGMZqguu5qLHo-idfvu-4" target="IRGMZqguu5qLHo-idfvu-35" edge="1">
          <mxGeometry width="50" height="50" relative="1" as="geometry">
            <mxPoint x="216" y="6797" as="sourcePoint" />
            <mxPoint x="266" y="6747" as="targetPoint" />
          </mxGeometry>
        </mxCell>
        <mxCell id="IRGMZqguu5qLHo-idfvu-37" value="" style="rounded=0;whiteSpace=wrap;html=1;" parent="1" vertex="1">
          <mxGeometry x="-273.5" y="7109" width="736" height="436" as="geometry" />
        </mxCell>
        <mxCell id="IRGMZqguu5qLHo-idfvu-38" value="" style="rounded=0;whiteSpace=wrap;html=1;" parent="1" vertex="1">
          <mxGeometry x="-205.5" y="7168" width="422" height="176" as="geometry" />
        </mxCell>
        <mxCell id="IRGMZqguu5qLHo-idfvu-39" value="CallCenter.exe" style="rounded=0;whiteSpace=wrap;html=1;" parent="1" vertex="1">
          <mxGeometry x="65" y="7187.5" width="120" height="64" as="geometry" />
        </mxCell>
        <mxCell id="IRGMZqguu5qLHo-idfvu-40" value="" style="rounded=0;whiteSpace=wrap;html=1;" parent="1" vertex="1">
          <mxGeometry x="-201.75" y="7372" width="195" height="145" as="geometry" />
        </mxCell>
        <mxCell id="IRGMZqguu5qLHo-idfvu-41" value="APP SERVER&lt;br&gt;" style="image;aspect=fixed;perimeter=ellipsePerimeter;html=1;align=center;shadow=0;dashed=0;spacingTop=3;image=img/lib/active_directory/generic_server.svg;" parent="1" vertex="1">
          <mxGeometry x="-216.75" y="7344" width="28.000000000000004" height="50" as="geometry" />
        </mxCell>
        <mxCell id="IRGMZqguu5qLHo-idfvu-42" value="" style="rounded=0;whiteSpace=wrap;html=1;" parent="1" vertex="1">
          <mxGeometry x="26" y="7376" width="197" height="141" as="geometry" />
        </mxCell>
        <mxCell id="IRGMZqguu5qLHo-idfvu-43" value="NTS DB Server" style="image;aspect=fixed;perimeter=ellipsePerimeter;html=1;align=center;shadow=0;dashed=0;spacingTop=3;image=img/lib/active_directory/database_server.svg;" parent="1" vertex="1">
          <mxGeometry x="12" y="7344" width="41" height="50" as="geometry" />
        </mxCell>
        <mxCell id="IRGMZqguu5qLHo-idfvu-44" value="" style="rounded=0;whiteSpace=wrap;html=1;" parent="1" vertex="1">
          <mxGeometry x="244" y="7168" width="195" height="176" as="geometry" />
        </mxCell>
        <mxCell id="IRGMZqguu5qLHo-idfvu-45" value="telebus&lt;br&gt;(9022 port listen)" style="rounded=0;whiteSpace=wrap;html=1;" parent="1" vertex="1">
          <mxGeometry x="277.5" y="7246.5" width="120" height="64" as="geometry" />
        </mxCell>
        <mxCell id="IRGMZqguu5qLHo-idfvu-46" value="PBX Server" style="image;aspect=fixed;perimeter=ellipsePerimeter;html=1;align=center;shadow=0;dashed=0;spacingTop=3;image=img/lib/active_directory/generic_server.svg;" parent="1" vertex="1">
          <mxGeometry x="236.5" y="7137" width="28.000000000000004" height="50" as="geometry" />
        </mxCell>
        <mxCell id="IRGMZqguu5qLHo-idfvu-47" value="ContactCenter 프로그램 연계도" style="rounded=0;whiteSpace=wrap;html=1;" parent="1" vertex="1">
          <mxGeometry x="-261.5" y="7100" width="240" height="26" as="geometry" />
        </mxCell>
        <mxCell id="IRGMZqguu5qLHo-idfvu-48" value="" style="rounded=0;whiteSpace=wrap;html=1;" parent="1" vertex="1">
          <mxGeometry x="243.75" y="7374" width="195" height="143" as="geometry" />
        </mxCell>
        <mxCell id="IRGMZqguu5qLHo-idfvu-49" value="PBX Server" style="image;aspect=fixed;perimeter=ellipsePerimeter;html=1;align=center;shadow=0;dashed=0;spacingTop=3;image=img/lib/active_directory/generic_server.svg;" parent="1" vertex="1">
          <mxGeometry x="236.25" y="7343" width="28.000000000000004" height="50" as="geometry" />
        </mxCell>
        <mxCell id="IRGMZqguu5qLHo-idfvu-50" value="telebus(PDS)&lt;br&gt;(16002 port listen)" style="rounded=0;whiteSpace=wrap;html=1;" parent="1" vertex="1">
          <mxGeometry x="274.25" y="7426" width="120" height="64" as="geometry" />
        </mxCell>
        <mxCell id="IRGMZqguu5qLHo-idfvu-54" value="softphone.exe" style="rounded=0;whiteSpace=wrap;html=1;" parent="1" vertex="1">
          <mxGeometry x="65" y="7260.5" width="120" height="64" as="geometry" />
        </mxCell>
        <mxCell id="IRGMZqguu5qLHo-idfvu-55" value="ContactCenter.exe" style="rounded=0;whiteSpace=wrap;html=1;" parent="1" vertex="1">
          <mxGeometry x="-191" y="7187.5" width="153" height="139.5" as="geometry" />
        </mxCell>
        <mxCell id="IRGMZqguu5qLHo-idfvu-56" value="상담사 PC&lt;br&gt;" style="image;aspect=fixed;perimeter=ellipsePerimeter;html=1;align=center;shadow=0;dashed=0;spacingTop=3;image=img/lib/active_directory/workstation_client.svg;" parent="1" vertex="1">
          <mxGeometry x="-233.5" y="7137" width="42.5" height="50" as="geometry" />
        </mxCell>
        <mxCell id="IRGMZqguu5qLHo-idfvu-57" value="EXEC" style="endArrow=classic;html=1;rounded=0;exitX=1;exitY=0.5;exitDx=0;exitDy=0;entryX=0;entryY=0.5;entryDx=0;entryDy=0;" parent="1" source="IRGMZqguu5qLHo-idfvu-55" target="IRGMZqguu5qLHo-idfvu-39" edge="1">
          <mxGeometry width="50" height="50" relative="1" as="geometry">
            <mxPoint x="210.5" y="7304" as="sourcePoint" />
            <mxPoint x="260.5" y="7254" as="targetPoint" />
          </mxGeometry>
        </mxCell>
        <mxCell id="IRGMZqguu5qLHo-idfvu-58" value="EXEC" style="endArrow=classic;html=1;rounded=0;exitX=1;exitY=0.5;exitDx=0;exitDy=0;entryX=0;entryY=0.5;entryDx=0;entryDy=0;" parent="1" source="IRGMZqguu5qLHo-idfvu-55" target="IRGMZqguu5qLHo-idfvu-54" edge="1">
          <mxGeometry width="50" height="50" relative="1" as="geometry">
            <mxPoint x="-73.5" y="7267" as="sourcePoint" />
            <mxPoint x="-49.5" y="7230" as="targetPoint" />
          </mxGeometry>
        </mxCell>
        <mxCell id="IRGMZqguu5qLHo-idfvu-62" value="mssql server&lt;br&gt;(1433, 8521 listen)" style="rounded=0;whiteSpace=wrap;html=1;" parent="1" vertex="1">
          <mxGeometry x="80.5" y="7405" width="123.1" height="61" as="geometry" />
        </mxCell>
        <mxCell id="IRGMZqguu5qLHo-idfvu-63" value="version check" style="endArrow=classic;startArrow=classic;html=1;rounded=0;exitX=0.5;exitY=1;exitDx=0;exitDy=0;entryX=0.5;entryY=0;entryDx=0;entryDy=0;" parent="1" source="IRGMZqguu5qLHo-idfvu-55" target="IRGMZqguu5qLHo-idfvu-62" edge="1">
          <mxGeometry width="50" height="50" relative="1" as="geometry">
            <mxPoint x="210.5" y="7297" as="sourcePoint" />
            <mxPoint x="260.5" y="7247" as="targetPoint" />
          </mxGeometry>
        </mxCell>
        <mxCell id="IRGMZqguu5qLHo-idfvu-91" value="IIS FTP&lt;br&gt;FreeFTPD FTP&lt;br&gt;(7714 port&amp;nbsp;&amp;nbsp;listen)" style="rounded=0;whiteSpace=wrap;html=1;" parent="1" vertex="1">
          <mxGeometry x="-161" y="7403" width="120" height="60" as="geometry" />
        </mxCell>
        <mxCell id="IRGMZqguu5qLHo-idfvu-92" value="ftp&lt;br&gt;download" style="endArrow=classic;startArrow=classic;html=1;rounded=0;exitX=0.5;exitY=0;exitDx=0;exitDy=0;" parent="1" source="IRGMZqguu5qLHo-idfvu-91" target="IRGMZqguu5qLHo-idfvu-55" edge="1">
          <mxGeometry width="50" height="50" relative="1" as="geometry">
            <mxPoint x="216" y="7242" as="sourcePoint" />
            <mxPoint x="266" y="7192" as="targetPoint" />
          </mxGeometry>
        </mxCell>
        <mxCell id="IRGMZqguu5qLHo-idfvu-93" value="" style="rounded=0;whiteSpace=wrap;html=1;" parent="1" vertex="1">
          <mxGeometry x="-273.5" y="7608" width="736" height="436" as="geometry" />
        </mxCell>
        <mxCell id="IRGMZqguu5qLHo-idfvu-94" value="" style="rounded=0;whiteSpace=wrap;html=1;" parent="1" vertex="1">
          <mxGeometry x="-205.5" y="7667" width="422" height="176" as="geometry" />
        </mxCell>
        <mxCell id="IRGMZqguu5qLHo-idfvu-95" value="TTMessenger.exe" style="rounded=0;whiteSpace=wrap;html=1;" parent="1" vertex="1">
          <mxGeometry x="65" y="7686.5" width="120" height="137.5" as="geometry" />
        </mxCell>
        <mxCell id="IRGMZqguu5qLHo-idfvu-96" value="" style="rounded=0;whiteSpace=wrap;html=1;" parent="1" vertex="1">
          <mxGeometry x="-201.75" y="7871" width="195" height="145" as="geometry" />
        </mxCell>
        <mxCell id="IRGMZqguu5qLHo-idfvu-97" value="APP SERVER&lt;br&gt;" style="image;aspect=fixed;perimeter=ellipsePerimeter;html=1;align=center;shadow=0;dashed=0;spacingTop=3;image=img/lib/active_directory/generic_server.svg;" parent="1" vertex="1">
          <mxGeometry x="-216.75" y="7843" width="28.000000000000004" height="50" as="geometry" />
        </mxCell>
        <mxCell id="IRGMZqguu5qLHo-idfvu-98" value="" style="rounded=0;whiteSpace=wrap;html=1;" parent="1" vertex="1">
          <mxGeometry x="26" y="7875" width="197" height="141" as="geometry" />
        </mxCell>
        <mxCell id="IRGMZqguu5qLHo-idfvu-99" value="NTS DB Server" style="image;aspect=fixed;perimeter=ellipsePerimeter;html=1;align=center;shadow=0;dashed=0;spacingTop=3;image=img/lib/active_directory/database_server.svg;" parent="1" vertex="1">
          <mxGeometry x="12" y="7843" width="41" height="50" as="geometry" />
        </mxCell>
        <mxCell id="IRGMZqguu5qLHo-idfvu-100" value="" style="rounded=0;whiteSpace=wrap;html=1;" parent="1" vertex="1">
          <mxGeometry x="244" y="7667" width="195" height="176" as="geometry" />
        </mxCell>
        <mxCell id="IRGMZqguu5qLHo-idfvu-101" value="telebus&lt;br&gt;(9022 port listen)" style="rounded=0;whiteSpace=wrap;html=1;" parent="1" vertex="1">
          <mxGeometry x="277.5" y="7745.5" width="120" height="64" as="geometry" />
        </mxCell>
        <mxCell id="IRGMZqguu5qLHo-idfvu-102" value="PBX Server" style="image;aspect=fixed;perimeter=ellipsePerimeter;html=1;align=center;shadow=0;dashed=0;spacingTop=3;image=img/lib/active_directory/generic_server.svg;" parent="1" vertex="1">
          <mxGeometry x="236.5" y="7636" width="28.000000000000004" height="50" as="geometry" />
        </mxCell>
        <mxCell id="IRGMZqguu5qLHo-idfvu-103" value="TTMessenger 프로그램 연계도" style="rounded=0;whiteSpace=wrap;html=1;" parent="1" vertex="1">
          <mxGeometry x="-261.5" y="7599" width="240" height="26" as="geometry" />
        </mxCell>
        <mxCell id="IRGMZqguu5qLHo-idfvu-104" value="" style="rounded=0;whiteSpace=wrap;html=1;" parent="1" vertex="1">
          <mxGeometry x="243.75" y="7873" width="195" height="143" as="geometry" />
        </mxCell>
        <mxCell id="IRGMZqguu5qLHo-idfvu-105" value="PBX Server" style="image;aspect=fixed;perimeter=ellipsePerimeter;html=1;align=center;shadow=0;dashed=0;spacingTop=3;image=img/lib/active_directory/generic_server.svg;" parent="1" vertex="1">
          <mxGeometry x="236.25" y="7842" width="28.000000000000004" height="50" as="geometry" />
        </mxCell>
        <mxCell id="IRGMZqguu5qLHo-idfvu-106" value="telebus(PDS)&lt;br&gt;(16002 port listen)" style="rounded=0;whiteSpace=wrap;html=1;" parent="1" vertex="1">
          <mxGeometry x="274.25" y="7925" width="120" height="64" as="geometry" />
        </mxCell>
        <mxCell id="IRGMZqguu5qLHo-idfvu-108" value="CallCenter.exe" style="rounded=0;whiteSpace=wrap;html=1;" parent="1" vertex="1">
          <mxGeometry x="-191" y="7686.5" width="153" height="139.5" as="geometry" />
        </mxCell>
        <mxCell id="IRGMZqguu5qLHo-idfvu-109" value="상담사 PC&lt;br&gt;" style="image;aspect=fixed;perimeter=ellipsePerimeter;html=1;align=center;shadow=0;dashed=0;spacingTop=3;image=img/lib/active_directory/workstation_client.svg;" parent="1" vertex="1">
          <mxGeometry x="-233.5" y="7636" width="42.5" height="50" as="geometry" />
        </mxCell>
        <mxCell id="IRGMZqguu5qLHo-idfvu-110" value="EXEC" style="endArrow=classic;html=1;rounded=0;exitX=1;exitY=0.5;exitDx=0;exitDy=0;entryX=0;entryY=0.5;entryDx=0;entryDy=0;" parent="1" source="IRGMZqguu5qLHo-idfvu-108" target="IRGMZqguu5qLHo-idfvu-95" edge="1">
          <mxGeometry width="50" height="50" relative="1" as="geometry">
            <mxPoint x="210.5" y="7803" as="sourcePoint" />
            <mxPoint x="260.5" y="7753" as="targetPoint" />
          </mxGeometry>
        </mxCell>
        <mxCell id="IRGMZqguu5qLHo-idfvu-112" value="mssql server&lt;br&gt;(1433, 8521 listen)" style="rounded=0;whiteSpace=wrap;html=1;" parent="1" vertex="1">
          <mxGeometry x="80.5" y="7904" width="123.1" height="61" as="geometry" />
        </mxCell>
        <mxCell id="IRGMZqguu5qLHo-idfvu-113" value="user list get" style="endArrow=classic;startArrow=classic;html=1;rounded=0;exitX=0.5;exitY=1;exitDx=0;exitDy=0;entryX=0.5;entryY=0;entryDx=0;entryDy=0;" parent="1" source="IRGMZqguu5qLHo-idfvu-95" target="IRGMZqguu5qLHo-idfvu-112" edge="1">
          <mxGeometry x="0.0025" width="50" height="50" relative="1" as="geometry">
            <mxPoint x="210.5" y="7796" as="sourcePoint" />
            <mxPoint x="260.5" y="7746" as="targetPoint" />
            <mxPoint as="offset" />
          </mxGeometry>
        </mxCell>
        <mxCell id="IRGMZqguu5qLHo-idfvu-114" value="NTSAPPSERVER.EXE&lt;br&gt;(7712 port listen)" style="rounded=0;whiteSpace=wrap;html=1;" parent="1" vertex="1">
          <mxGeometry x="-161" y="7902" width="144" height="60" as="geometry" />
        </mxCell>
        <mxCell id="IRGMZqguu5qLHo-idfvu-115" value="tcp" style="endArrow=classic;startArrow=classic;html=1;rounded=0;exitX=0.5;exitY=0;exitDx=0;exitDy=0;entryX=0.5;entryY=1;entryDx=0;entryDy=0;" parent="1" source="IRGMZqguu5qLHo-idfvu-114" target="IRGMZqguu5qLHo-idfvu-95" edge="1">
          <mxGeometry width="50" height="50" relative="1" as="geometry">
            <mxPoint x="216" y="7741" as="sourcePoint" />
            <mxPoint x="266" y="7691" as="targetPoint" />
          </mxGeometry>
        </mxCell>
        <mxCell id="IRGMZqguu5qLHo-idfvu-116" value="" style="rounded=0;whiteSpace=wrap;html=1;" parent="1" vertex="1">
          <mxGeometry x="-273.5" y="8137" width="736" height="436" as="geometry" />
        </mxCell>
        <mxCell id="IRGMZqguu5qLHo-idfvu-117" value="" style="rounded=0;whiteSpace=wrap;html=1;" parent="1" vertex="1">
          <mxGeometry x="-205.5" y="8196" width="422" height="176" as="geometry" />
        </mxCell>
        <mxCell id="IRGMZqguu5qLHo-idfvu-118" value="Monitoring.exe&lt;br&gt;(30002, 30003 udp port listen)" style="rounded=0;whiteSpace=wrap;html=1;" parent="1" vertex="1">
          <mxGeometry x="65" y="8215.5" width="120" height="137.5" as="geometry" />
        </mxCell>
        <mxCell id="IRGMZqguu5qLHo-idfvu-119" value="" style="rounded=0;whiteSpace=wrap;html=1;" parent="1" vertex="1">
          <mxGeometry x="-201.75" y="8400" width="195" height="145" as="geometry" />
        </mxCell>
        <mxCell id="IRGMZqguu5qLHo-idfvu-120" value="APP SERVER&lt;br&gt;" style="image;aspect=fixed;perimeter=ellipsePerimeter;html=1;align=center;shadow=0;dashed=0;spacingTop=3;image=img/lib/active_directory/generic_server.svg;" parent="1" vertex="1">
          <mxGeometry x="-216.75" y="8372" width="28.000000000000004" height="50" as="geometry" />
        </mxCell>
        <mxCell id="IRGMZqguu5qLHo-idfvu-123" value="" style="rounded=0;whiteSpace=wrap;html=1;" parent="1" vertex="1">
          <mxGeometry x="244" y="8196" width="195" height="176" as="geometry" />
        </mxCell>
        <mxCell id="IRGMZqguu5qLHo-idfvu-124" value="telebus&lt;br&gt;(9022 port listen)" style="rounded=0;whiteSpace=wrap;html=1;" parent="1" vertex="1">
          <mxGeometry x="277.5" y="8274.5" width="120" height="64" as="geometry" />
        </mxCell>
        <mxCell id="IRGMZqguu5qLHo-idfvu-125" value="PBX Server" style="image;aspect=fixed;perimeter=ellipsePerimeter;html=1;align=center;shadow=0;dashed=0;spacingTop=3;image=img/lib/active_directory/generic_server.svg;" parent="1" vertex="1">
          <mxGeometry x="236.5" y="8165" width="28.000000000000004" height="50" as="geometry" />
        </mxCell>
        <mxCell id="IRGMZqguu5qLHo-idfvu-126" value="Monitoring 프로그램 연계도" style="rounded=0;whiteSpace=wrap;html=1;" parent="1" vertex="1">
          <mxGeometry x="-261.5" y="8128" width="240" height="26" as="geometry" />
        </mxCell>
        <mxCell id="IRGMZqguu5qLHo-idfvu-130" value="CallCenter.exe" style="rounded=0;whiteSpace=wrap;html=1;" parent="1" vertex="1">
          <mxGeometry x="-191" y="8215.5" width="153" height="139.5" as="geometry" />
        </mxCell>
        <mxCell id="IRGMZqguu5qLHo-idfvu-131" value="상담사 PC&lt;br&gt;" style="image;aspect=fixed;perimeter=ellipsePerimeter;html=1;align=center;shadow=0;dashed=0;spacingTop=3;image=img/lib/active_directory/workstation_client.svg;" parent="1" vertex="1">
          <mxGeometry x="-233.5" y="8165" width="42.5" height="50" as="geometry" />
        </mxCell>
        <mxCell id="IRGMZqguu5qLHo-idfvu-132" value="EXEC" style="endArrow=classic;html=1;rounded=0;exitX=1;exitY=0.5;exitDx=0;exitDy=0;entryX=0;entryY=0.5;entryDx=0;entryDy=0;" parent="1" source="IRGMZqguu5qLHo-idfvu-130" target="IRGMZqguu5qLHo-idfvu-118" edge="1">
          <mxGeometry width="50" height="50" relative="1" as="geometry">
            <mxPoint x="210.5" y="8332" as="sourcePoint" />
            <mxPoint x="260.5" y="8282" as="targetPoint" />
          </mxGeometry>
        </mxCell>
        <mxCell id="IRGMZqguu5qLHo-idfvu-135" value="VoipCapture_Monitor.exe&lt;br&gt;(30001 port listen )" style="rounded=0;whiteSpace=wrap;html=1;" parent="1" vertex="1">
          <mxGeometry x="-183.25" y="8450" width="144" height="60" as="geometry" />
        </mxCell>
        <mxCell id="IRGMZqguu5qLHo-idfvu-136" value="TCP(내선요청)" style="endArrow=classic;startArrow=classic;html=1;rounded=0;exitX=0.5;exitY=0;exitDx=0;exitDy=0;entryX=0.25;entryY=1;entryDx=0;entryDy=0;" parent="1" source="IRGMZqguu5qLHo-idfvu-135" target="IRGMZqguu5qLHo-idfvu-118" edge="1">
          <mxGeometry width="50" height="50" relative="1" as="geometry">
            <mxPoint x="216" y="8270" as="sourcePoint" />
            <mxPoint x="266" y="8220" as="targetPoint" />
          </mxGeometry>
        </mxCell>
        <mxCell id="IRGMZqguu5qLHo-idfvu-137" value="udp(음성데이터)" style="endArrow=classic;html=1;rounded=0;exitX=1;exitY=0.5;exitDx=0;exitDy=0;entryX=0.75;entryY=1;entryDx=0;entryDy=0;" parent="1" source="IRGMZqguu5qLHo-idfvu-135" target="IRGMZqguu5qLHo-idfvu-118" edge="1">
          <mxGeometry width="50" height="50" relative="1" as="geometry">
            <mxPoint x="216" y="8231" as="sourcePoint" />
            <mxPoint x="266" y="8181" as="targetPoint" />
          </mxGeometry>
        </mxCell>
        <mxCell id="IRGMZqguu5qLHo-idfvu-143" value="gateway&lt;br&gt;(pbx port mirroring)" style="fontColor=#FFFFFF;verticalAlign=top;verticalLabelPosition=bottom;labelPosition=center;align=center;html=1;outlineConnect=0;fillColor=#CCCCCC;strokeColor=#6881B3;gradientColor=none;gradientDirection=north;strokeWidth=2;shape=mxgraph.networks.hub;" parent="1" vertex="1">
          <mxGeometry x="343" y="8491" width="100" height="30" as="geometry" />
        </mxCell>
        <mxCell id="IRGMZqguu5qLHo-idfvu-144" value="LAN 1" style="endArrow=none;html=1;rounded=0;entryX=0.75;entryY=1;entryDx=0;entryDy=0;" parent="1" source="IRGMZqguu5qLHo-idfvu-143" target="IRGMZqguu5qLHo-idfvu-123" edge="1">
          <mxGeometry width="50" height="50" relative="1" as="geometry">
            <mxPoint x="216" y="8231" as="sourcePoint" />
            <mxPoint x="266" y="8181" as="targetPoint" />
          </mxGeometry>
        </mxCell>
        <mxCell id="IRGMZqguu5qLHo-idfvu-145" value="LAN 1" style="endArrow=none;html=1;rounded=0;exitX=1;exitY=0.75;exitDx=0;exitDy=0;" parent="1" source="IRGMZqguu5qLHo-idfvu-119" target="IRGMZqguu5qLHo-idfvu-143" edge="1">
          <mxGeometry x="0.0007" width="50" height="50" relative="1" as="geometry">
            <mxPoint x="223" y="8443" as="sourcePoint" />
            <mxPoint x="303" y="8382" as="targetPoint" />
            <mxPoint as="offset" />
          </mxGeometry>
        </mxCell>
        <mxCell id="IRGMZqguu5qLHo-idfvu-146" value="LAN 2&lt;br&gt;(SFTP)" style="endArrow=none;html=1;rounded=0;exitX=1;exitY=0.5;exitDx=0;exitDy=0;entryX=0.25;entryY=1;entryDx=0;entryDy=0;" parent="1" source="IRGMZqguu5qLHo-idfvu-119" target="IRGMZqguu5qLHo-idfvu-123" edge="1">
          <mxGeometry x="0.0003" width="50" height="50" relative="1" as="geometry">
            <mxPoint x="216" y="8531" as="sourcePoint" />
            <mxPoint x="266" y="8481" as="targetPoint" />
            <mxPoint as="offset" />
          </mxGeometry>
        </mxCell>
        <mxCell id="IRGMZqguu5qLHo-idfvu-166" value="" style="rounded=0;whiteSpace=wrap;html=1;" parent="1" vertex="1">
          <mxGeometry x="-273.5" y="8638" width="736" height="436" as="geometry" />
        </mxCell>
        <mxCell id="IRGMZqguu5qLHo-idfvu-167" value="" style="rounded=0;whiteSpace=wrap;html=1;" parent="1" vertex="1">
          <mxGeometry x="-205.5" y="8697" width="422" height="176" as="geometry" />
        </mxCell>
        <mxCell id="IRGMZqguu5qLHo-idfvu-168" value="Softphone.exe&lt;br&gt;(7712 port listen)&lt;br&gt;&lt;br&gt;&lt;br&gt;" style="rounded=0;whiteSpace=wrap;html=1;" parent="1" vertex="1">
          <mxGeometry x="65" y="8716.5" width="120" height="137.5" as="geometry" />
        </mxCell>
        <mxCell id="IRGMZqguu5qLHo-idfvu-171" value="" style="rounded=0;whiteSpace=wrap;html=1;" parent="1" vertex="1">
          <mxGeometry x="244" y="8697" width="195" height="176" as="geometry" />
        </mxCell>
        <mxCell id="IRGMZqguu5qLHo-idfvu-172" value="telebus&lt;br&gt;(9022 port listen)" style="rounded=0;whiteSpace=wrap;html=1;" parent="1" vertex="1">
          <mxGeometry x="277.5" y="8775.5" width="120" height="64" as="geometry" />
        </mxCell>
        <mxCell id="IRGMZqguu5qLHo-idfvu-173" value="PBX Server" style="image;aspect=fixed;perimeter=ellipsePerimeter;html=1;align=center;shadow=0;dashed=0;spacingTop=3;image=img/lib/active_directory/generic_server.svg;" parent="1" vertex="1">
          <mxGeometry x="236.5" y="8666" width="28.000000000000004" height="50" as="geometry" />
        </mxCell>
        <mxCell id="IRGMZqguu5qLHo-idfvu-174" value="SoftPhone.exe&amp;nbsp;프로그램 연계도" style="rounded=0;whiteSpace=wrap;html=1;" parent="1" vertex="1">
          <mxGeometry x="-261.5" y="8629" width="240" height="26" as="geometry" />
        </mxCell>
        <mxCell id="IRGMZqguu5qLHo-idfvu-175" value="CallCenter.exe" style="rounded=0;whiteSpace=wrap;html=1;" parent="1" vertex="1">
          <mxGeometry x="-191" y="8716" width="153" height="32.5" as="geometry" />
        </mxCell>
        <mxCell id="IRGMZqguu5qLHo-idfvu-176" value="상담사 PC&lt;br&gt;" style="image;aspect=fixed;perimeter=ellipsePerimeter;html=1;align=center;shadow=0;dashed=0;spacingTop=3;image=img/lib/active_directory/workstation_client.svg;" parent="1" vertex="1">
          <mxGeometry x="-233.5" y="8666" width="42.5" height="50" as="geometry" />
        </mxCell>
        <mxCell id="IRGMZqguu5qLHo-idfvu-177" value="EXEC" style="endArrow=classic;html=1;rounded=0;exitX=1;exitY=0.5;exitDx=0;exitDy=0;entryX=0;entryY=0.25;entryDx=0;entryDy=0;" parent="1" source="IRGMZqguu5qLHo-idfvu-175" target="IRGMZqguu5qLHo-idfvu-168" edge="1">
          <mxGeometry width="50" height="50" relative="1" as="geometry">
            <mxPoint x="210.5" y="8833" as="sourcePoint" />
            <mxPoint x="260.5" y="8783" as="targetPoint" />
          </mxGeometry>
        </mxCell>
        <mxCell id="IRGMZqguu5qLHo-idfvu-185" value="스폰서 call Application&lt;br&gt;&lt;br&gt;&lt;br&gt;" style="rounded=0;whiteSpace=wrap;html=1;" parent="1" vertex="1">
          <mxGeometry x="-191" y="8757" width="153" height="61" as="geometry" />
        </mxCell>
        <mxCell id="IRGMZqguu5qLHo-idfvu-186" value="NTS_CTIAgent.exe" style="rounded=0;whiteSpace=wrap;html=1;" parent="1" vertex="1">
          <mxGeometry x="-191.25" y="8827" width="153" height="37" as="geometry" />
        </mxCell>
        <mxCell id="IRGMZqguu5qLHo-idfvu-187" value="NTSPhoneX.ocx" style="rounded=0;whiteSpace=wrap;html=1;" parent="1" vertex="1">
          <mxGeometry x="-175" y="8788" width="120" height="20" as="geometry" />
        </mxCell>
        <mxCell id="IRGMZqguu5qLHo-idfvu-188" value="tcp" style="endArrow=classic;startArrow=classic;html=1;rounded=0;exitX=1;exitY=0.5;exitDx=0;exitDy=0;" parent="1" source="IRGMZqguu5qLHo-idfvu-187" target="IRGMZqguu5qLHo-idfvu-168" edge="1">
          <mxGeometry width="50" height="50" relative="1" as="geometry">
            <mxPoint x="216" y="8960" as="sourcePoint" />
            <mxPoint x="266" y="8910" as="targetPoint" />
          </mxGeometry>
        </mxCell>
        <mxCell id="IRGMZqguu5qLHo-idfvu-189" value="tcp" style="endArrow=classic;startArrow=classic;html=1;rounded=0;exitX=1;exitY=0.5;exitDx=0;exitDy=0;entryX=0;entryY=0.75;entryDx=0;entryDy=0;" parent="1" source="IRGMZqguu5qLHo-idfvu-186" target="IRGMZqguu5qLHo-idfvu-168" edge="1">
          <mxGeometry width="50" height="50" relative="1" as="geometry">
            <mxPoint x="-45" y="8808" as="sourcePoint" />
            <mxPoint x="75" y="8800" as="targetPoint" />
          </mxGeometry>
        </mxCell>
        <mxCell id="7MaI-tCzHiJNih9lgq7B-1" value="상담사 내선전화기(SIP PHONE)" style="verticalLabelPosition=bottom;sketch=0;html=1;fillColor=#A153A0;strokeColor=#ffffff;verticalAlign=top;align=center;points=[[0,0.5,0],[0.125,0.25,0],[0.25,0,0],[0.5,0,0],[0.75,0,0],[0.875,0.25,0],[1,0.5,0],[0.875,0.75,0],[0.75,1,0],[0.5,1,0],[0.125,0.75,0]];pointerEvents=1;shape=mxgraph.cisco_safe.compositeIcon;bgIcon=mxgraph.cisco_safe.design.blank_device;resIcon=mxgraph.cisco_safe.design.phone;" parent="1" vertex="1">
          <mxGeometry x="107.31" y="8942" width="50" height="45" as="geometry" />
        </mxCell>
        <mxCell id="7MaI-tCzHiJNih9lgq7B-2" value="tcp" style="endArrow=classic;startArrow=classic;html=1;rounded=0;exitX=1;exitY=0.5;exitDx=0;exitDy=0;entryX=0;entryY=0.5;entryDx=0;entryDy=0;" parent="1" source="IRGMZqguu5qLHo-idfvu-168" target="IRGMZqguu5qLHo-idfvu-172" edge="1">
          <mxGeometry width="50" height="50" relative="1" as="geometry">
            <mxPoint x="-28" y="8856" as="sourcePoint" />
            <mxPoint x="75" y="8830" as="targetPoint" />
          </mxGeometry>
        </mxCell>
        <mxCell id="7MaI-tCzHiJNih9lgq7B-3" value="tcp" style="endArrow=classic;startArrow=classic;html=1;rounded=0;exitX=0.875;exitY=0.25;exitDx=0;exitDy=0;exitPerimeter=0;" parent="1" source="7MaI-tCzHiJNih9lgq7B-1" target="IRGMZqguu5qLHo-idfvu-172" edge="1">
          <mxGeometry width="50" height="50" relative="1" as="geometry">
            <mxPoint x="195" y="8795" as="sourcePoint" />
            <mxPoint x="288" y="8818" as="targetPoint" />
          </mxGeometry>
        </mxCell>
        <mxCell id="7MaI-tCzHiJNih9lgq7B-4" value="" style="rounded=0;whiteSpace=wrap;html=1;" parent="1" vertex="1">
          <mxGeometry x="-273.5" y="9164" width="736" height="436" as="geometry" />
        </mxCell>
        <mxCell id="7MaI-tCzHiJNih9lgq7B-5" value="" style="rounded=0;whiteSpace=wrap;html=1;" parent="1" vertex="1">
          <mxGeometry x="-205.5" y="9223" width="422" height="176" as="geometry" />
        </mxCell>
        <mxCell id="7MaI-tCzHiJNih9lgq7B-6" value="HMPlayer.exe" style="rounded=0;whiteSpace=wrap;html=1;" parent="1" vertex="1">
          <mxGeometry x="65" y="9242.5" width="120" height="137.5" as="geometry" />
        </mxCell>
        <mxCell id="7MaI-tCzHiJNih9lgq7B-7" value="" style="rounded=0;whiteSpace=wrap;html=1;" parent="1" vertex="1">
          <mxGeometry x="-201.75" y="9427" width="195" height="145" as="geometry" />
        </mxCell>
        <mxCell id="7MaI-tCzHiJNih9lgq7B-8" value="APP SERVER&lt;br&gt;" style="image;aspect=fixed;perimeter=ellipsePerimeter;html=1;align=center;shadow=0;dashed=0;spacingTop=3;image=img/lib/active_directory/generic_server.svg;" parent="1" vertex="1">
          <mxGeometry x="-216.75" y="9399" width="28.000000000000004" height="50" as="geometry" />
        </mxCell>
        <mxCell id="7MaI-tCzHiJNih9lgq7B-9" value="" style="rounded=0;whiteSpace=wrap;html=1;" parent="1" vertex="1">
          <mxGeometry x="244" y="9223" width="195" height="176" as="geometry" />
        </mxCell>
        <mxCell id="7MaI-tCzHiJNih9lgq7B-10" value="telebus&lt;br&gt;(9022 port listen)" style="rounded=0;whiteSpace=wrap;html=1;" parent="1" vertex="1">
          <mxGeometry x="277.5" y="9301.5" width="120" height="64" as="geometry" />
        </mxCell>
        <mxCell id="7MaI-tCzHiJNih9lgq7B-11" value="PBX Server" style="image;aspect=fixed;perimeter=ellipsePerimeter;html=1;align=center;shadow=0;dashed=0;spacingTop=3;image=img/lib/active_directory/generic_server.svg;" parent="1" vertex="1">
          <mxGeometry x="236.5" y="9192" width="28.000000000000004" height="50" as="geometry" />
        </mxCell>
        <mxCell id="7MaI-tCzHiJNih9lgq7B-12" value="HMPlayer.exe 프로그램 연계도" style="rounded=0;whiteSpace=wrap;html=1;" parent="1" vertex="1">
          <mxGeometry x="-261.5" y="9155" width="240" height="26" as="geometry" />
        </mxCell>
        <mxCell id="7MaI-tCzHiJNih9lgq7B-13" value="CallCenter.exe" style="rounded=0;whiteSpace=wrap;html=1;" parent="1" vertex="1">
          <mxGeometry x="-191" y="9242.5" width="153" height="54.5" as="geometry" />
        </mxCell>
        <mxCell id="7MaI-tCzHiJNih9lgq7B-14" value="상담사 PC&lt;br&gt;" style="image;aspect=fixed;perimeter=ellipsePerimeter;html=1;align=center;shadow=0;dashed=0;spacingTop=3;image=img/lib/active_directory/workstation_client.svg;" parent="1" vertex="1">
          <mxGeometry x="-233.5" y="9192" width="42.5" height="50" as="geometry" />
        </mxCell>
        <mxCell id="7MaI-tCzHiJNih9lgq7B-15" value="EXEC" style="endArrow=classic;html=1;rounded=0;exitX=1;exitY=0.5;exitDx=0;exitDy=0;entryX=0;entryY=0.5;entryDx=0;entryDy=0;" parent="1" source="7MaI-tCzHiJNih9lgq7B-13" target="7MaI-tCzHiJNih9lgq7B-6" edge="1">
          <mxGeometry width="50" height="50" relative="1" as="geometry">
            <mxPoint x="210.5" y="9359" as="sourcePoint" />
            <mxPoint x="260.5" y="9309" as="targetPoint" />
          </mxGeometry>
        </mxCell>
        <mxCell id="7MaI-tCzHiJNih9lgq7B-16" value="IIS HTTPS&amp;nbsp;&lt;br&gt;(8089 port listen)" style="rounded=0;whiteSpace=wrap;html=1;" parent="1" vertex="1">
          <mxGeometry x="-160" y="9447" width="144" height="41" as="geometry" />
        </mxCell>
        <mxCell id="7MaI-tCzHiJNih9lgq7B-17" value="http" style="endArrow=classic;startArrow=classic;html=1;rounded=0;exitX=0.5;exitY=0;exitDx=0;exitDy=0;entryX=0.25;entryY=1;entryDx=0;entryDy=0;" parent="1" source="7MaI-tCzHiJNih9lgq7B-16" target="7MaI-tCzHiJNih9lgq7B-6" edge="1">
          <mxGeometry width="50" height="50" relative="1" as="geometry">
            <mxPoint x="216" y="9297" as="sourcePoint" />
            <mxPoint x="266" y="9247" as="targetPoint" />
          </mxGeometry>
        </mxCell>
        <mxCell id="7MaI-tCzHiJNih9lgq7B-23" value="스폰서 call Application&lt;br&gt;&lt;br&gt;&lt;br&gt;&lt;br&gt;" style="rounded=0;whiteSpace=wrap;html=1;" parent="1" vertex="1">
          <mxGeometry x="-191.25" y="9308" width="153" height="78" as="geometry" />
        </mxCell>
        <mxCell id="7MaI-tCzHiJNih9lgq7B-24" value="NTSPhoneX.ocx&lt;br&gt;Telebuscallctrl.ocx" style="rounded=0;whiteSpace=wrap;html=1;" parent="1" vertex="1">
          <mxGeometry x="-175" y="9338" width="120" height="36.5" as="geometry" />
        </mxCell>
        <mxCell id="7MaI-tCzHiJNih9lgq7B-25" value="EXEC" style="endArrow=classic;html=1;rounded=0;exitX=1;exitY=0.5;exitDx=0;exitDy=0;entryX=0;entryY=0.5;entryDx=0;entryDy=0;" parent="1" source="7MaI-tCzHiJNih9lgq7B-24" target="7MaI-tCzHiJNih9lgq7B-6" edge="1">
          <mxGeometry width="50" height="50" relative="1" as="geometry">
            <mxPoint x="-28" y="9280" as="sourcePoint" />
            <mxPoint x="75" y="9321" as="targetPoint" />
          </mxGeometry>
        </mxCell>
        <mxCell id="7MaI-tCzHiJNih9lgq7B-26" value="" style="rounded=0;whiteSpace=wrap;html=1;" parent="1" vertex="1">
          <mxGeometry x="82" y="9431" width="197" height="141" as="geometry" />
        </mxCell>
        <mxCell id="7MaI-tCzHiJNih9lgq7B-27" value="NTS DB Server" style="image;aspect=fixed;perimeter=ellipsePerimeter;html=1;align=center;shadow=0;dashed=0;spacingTop=3;image=img/lib/active_directory/database_server.svg;" parent="1" vertex="1">
          <mxGeometry x="68" y="9399" width="41" height="50" as="geometry" />
        </mxCell>
        <mxCell id="7MaI-tCzHiJNih9lgq7B-28" value="mssql server&lt;br&gt;(1433, 8521 listen)" style="rounded=0;whiteSpace=wrap;html=1;" parent="1" vertex="1">
          <mxGeometry x="136.5" y="9460" width="123.1" height="61" as="geometry" />
        </mxCell>
        <mxCell id="7MaI-tCzHiJNih9lgq7B-29" value="DSAPPSERVER&lt;br&gt;PDS_IF_SERVER" style="rounded=0;whiteSpace=wrap;html=1;" parent="1" vertex="1">
          <mxGeometry x="-158" y="9497" width="143" height="61" as="geometry" />
        </mxCell>
        <mxCell id="7MaI-tCzHiJNih9lgq7B-36" value="" style="rounded=0;whiteSpace=wrap;html=1;" parent="1" vertex="1">
          <mxGeometry x="-268" y="9664" width="736" height="436" as="geometry" />
        </mxCell>
        <mxCell id="7MaI-tCzHiJNih9lgq7B-37" value="" style="rounded=0;whiteSpace=wrap;html=1;" parent="1" vertex="1">
          <mxGeometry x="-200" y="9723" width="422" height="176" as="geometry" />
        </mxCell>
        <mxCell id="7MaI-tCzHiJNih9lgq7B-38" value="&lt;div style=&quot;color: rgb(212, 212, 212); background-color: rgb(30, 30, 30); font-family: Consolas, &amp;quot;Courier New&amp;quot;, monospace; font-size: 14px; line-height: 19px;&quot;&gt;Onnara2_Mgr_Client.exe&lt;/div&gt;" style="rounded=0;whiteSpace=wrap;html=1;" parent="1" vertex="1">
          <mxGeometry x="-171" y="9747" width="205" height="71" as="geometry" />
        </mxCell>
        <mxCell id="7MaI-tCzHiJNih9lgq7B-39" value="" style="rounded=0;whiteSpace=wrap;html=1;" parent="1" vertex="1">
          <mxGeometry x="-196.25" y="9927" width="195" height="145" as="geometry" />
        </mxCell>
        <mxCell id="7MaI-tCzHiJNih9lgq7B-40" value="APP SERVER&lt;br&gt;" style="image;aspect=fixed;perimeter=ellipsePerimeter;html=1;align=center;shadow=0;dashed=0;spacingTop=3;image=img/lib/active_directory/generic_server.svg;" parent="1" vertex="1">
          <mxGeometry x="-211.25" y="9899" width="28.000000000000004" height="50" as="geometry" />
        </mxCell>
        <mxCell id="7MaI-tCzHiJNih9lgq7B-41" value="" style="rounded=0;whiteSpace=wrap;html=1;" parent="1" vertex="1">
          <mxGeometry x="249.5" y="9723" width="195" height="176" as="geometry" />
        </mxCell>
        <mxCell id="7MaI-tCzHiJNih9lgq7B-42" value="telebus&lt;br&gt;(9022 port listen)" style="rounded=0;whiteSpace=wrap;html=1;" parent="1" vertex="1">
          <mxGeometry x="283" y="9801.5" width="120" height="64" as="geometry" />
        </mxCell>
        <mxCell id="7MaI-tCzHiJNih9lgq7B-43" value="PBX Server" style="image;aspect=fixed;perimeter=ellipsePerimeter;html=1;align=center;shadow=0;dashed=0;spacingTop=3;image=img/lib/active_directory/generic_server.svg;" parent="1" vertex="1">
          <mxGeometry x="242" y="9692" width="28.000000000000004" height="50" as="geometry" />
        </mxCell>
        <mxCell id="7MaI-tCzHiJNih9lgq7B-44" value="Onnara2_Mgr_Client.exe 프로그램 연계도" style="rounded=0;whiteSpace=wrap;html=1;" parent="1" vertex="1">
          <mxGeometry x="-256" y="9655" width="240" height="26" as="geometry" />
        </mxCell>
        <mxCell id="7MaI-tCzHiJNih9lgq7B-46" value="상담사 PC&lt;br&gt;" style="image;aspect=fixed;perimeter=ellipsePerimeter;html=1;align=center;shadow=0;dashed=0;spacingTop=3;image=img/lib/active_directory/workstation_client.svg;" parent="1" vertex="1">
          <mxGeometry x="-228" y="9692" width="42.5" height="50" as="geometry" />
        </mxCell>
        <mxCell id="7MaI-tCzHiJNih9lgq7B-48" value="Onnara2_Mgr_Svr.exe&lt;br&gt;(9155 port listen)" style="rounded=0;whiteSpace=wrap;html=1;" parent="1" vertex="1">
          <mxGeometry x="-157" y="9949" width="144" height="41" as="geometry" />
        </mxCell>
        <mxCell id="7MaI-tCzHiJNih9lgq7B-49" value="http" style="endArrow=classic;startArrow=classic;html=1;rounded=0;exitX=0.5;exitY=0;exitDx=0;exitDy=0;entryX=0.25;entryY=1;entryDx=0;entryDy=0;" parent="1" source="7MaI-tCzHiJNih9lgq7B-48" target="7MaI-tCzHiJNih9lgq7B-38" edge="1">
          <mxGeometry width="50" height="50" relative="1" as="geometry">
            <mxPoint x="221.5" y="9797" as="sourcePoint" />
            <mxPoint x="271.5" y="9747" as="targetPoint" />
          </mxGeometry>
        </mxCell>
        <mxCell id="7MaI-tCzHiJNih9lgq7B-53" value="" style="rounded=0;whiteSpace=wrap;html=1;" parent="1" vertex="1">
          <mxGeometry x="87.5" y="9931" width="197" height="141" as="geometry" />
        </mxCell>
        <mxCell id="7MaI-tCzHiJNih9lgq7B-54" value="NTS DB Server" style="image;aspect=fixed;perimeter=ellipsePerimeter;html=1;align=center;shadow=0;dashed=0;spacingTop=3;image=img/lib/active_directory/database_server.svg;" parent="1" vertex="1">
          <mxGeometry x="73.5" y="9899" width="41" height="50" as="geometry" />
        </mxCell>
        <mxCell id="7MaI-tCzHiJNih9lgq7B-55" value="mssql server&lt;br&gt;(1433, 8521 listen)" style="rounded=0;whiteSpace=wrap;html=1;" parent="1" vertex="1">
          <mxGeometry x="142" y="9960" width="123.1" height="61" as="geometry" />
        </mxCell>
        <mxCell id="7MaI-tCzHiJNih9lgq7B-57" value="NTS_ManagerUtil.exe" style="rounded=0;whiteSpace=wrap;html=1;" parent="1" vertex="1">
          <mxGeometry x="-157" y="10016" width="144" height="41" as="geometry" />
        </mxCell>
        <mxCell id="7MaI-tCzHiJNih9lgq7B-58" value="http" style="endArrow=classic;startArrow=classic;html=1;rounded=0;entryX=0.5;entryY=0;entryDx=0;entryDy=0;exitX=0.5;exitY=1;exitDx=0;exitDy=0;" parent="1" source="7MaI-tCzHiJNih9lgq7B-48" target="7MaI-tCzHiJNih9lgq7B-57" edge="1">
          <mxGeometry width="50" height="50" relative="1" as="geometry">
            <mxPoint x="-75" y="9959" as="sourcePoint" />
            <mxPoint x="-110" y="9828" as="targetPoint" />
          </mxGeometry>
        </mxCell>
        <mxCell id="7MaI-tCzHiJNih9lgq7B-59" value="" style="endArrow=classic;startArrow=classic;html=1;rounded=0;exitX=1;exitY=0.5;exitDx=0;exitDy=0;entryX=0;entryY=0.25;entryDx=0;entryDy=0;" parent="1" source="7MaI-tCzHiJNih9lgq7B-48" target="7MaI-tCzHiJNih9lgq7B-55" edge="1">
          <mxGeometry width="50" height="50" relative="1" as="geometry">
            <mxPoint x="226" y="9812" as="sourcePoint" />
            <mxPoint x="276" y="9762" as="targetPoint" />
          </mxGeometry>
        </mxCell>
        <mxCell id="7MaI-tCzHiJNih9lgq7B-60" value="" style="endArrow=classic;startArrow=classic;html=1;rounded=0;exitX=0;exitY=0.75;exitDx=0;exitDy=0;entryX=1;entryY=0.5;entryDx=0;entryDy=0;" parent="1" source="7MaI-tCzHiJNih9lgq7B-55" target="7MaI-tCzHiJNih9lgq7B-57" edge="1">
          <mxGeometry width="50" height="50" relative="1" as="geometry">
            <mxPoint x="-65" y="9969" as="sourcePoint" />
            <mxPoint x="-100" y="9838" as="targetPoint" />
          </mxGeometry>
        </mxCell>
        <mxCell id="ZT3Jv7X_USVVSpchrtD9-1" value="&lt;font style=&quot;font-size: 14px;&quot;&gt;MAIN DB(SQLSERVER)&lt;br&gt;DOMAIN : MAINDB&lt;br&gt;IP : 192.168.0.2&lt;br&gt;&lt;/font&gt;" style="strokeWidth=2;html=1;shape=mxgraph.flowchart.database;whiteSpace=wrap;" parent="1" vertex="1">
          <mxGeometry x="-151.81" y="10438" width="175.75" height="165" as="geometry" />
        </mxCell>
        <mxCell id="ZT3Jv7X_USVVSpchrtD9-4" value="&lt;font style=&quot;font-size: 14px;&quot;&gt;SECON DB(SQLSERVER)&lt;br&gt;DOMAIN : SECONDB&lt;br&gt;IP : 192.168.0.3&lt;br&gt;&lt;/font&gt;" style="strokeWidth=2;html=1;shape=mxgraph.flowchart.database;whiteSpace=wrap;" parent="1" vertex="1">
          <mxGeometry x="163.25" y="10437" width="175.75" height="166" as="geometry" />
        </mxCell>
        <mxCell id="-i15NabXnN7qi55ZS0tn-4" style="edgeStyle=orthogonalEdgeStyle;rounded=0;orthogonalLoop=1;jettySize=auto;html=1;exitX=0.5;exitY=1;exitDx=0;exitDy=0;entryX=0.5;entryY=0;entryDx=0;entryDy=0;" parent="1" source="-i15NabXnN7qi55ZS0tn-1" target="-i15NabXnN7qi55ZS0tn-2" edge="1">
          <mxGeometry relative="1" as="geometry" />
        </mxCell>
        <mxCell id="-i15NabXnN7qi55ZS0tn-1" value="내마음정리" style="rounded=0;whiteSpace=wrap;html=1;" parent="1" vertex="1">
          <mxGeometry x="-113" y="10914" width="120" height="60" as="geometry" />
        </mxCell>
        <mxCell id="-i15NabXnN7qi55ZS0tn-3" value="no" style="edgeStyle=orthogonalEdgeStyle;rounded=0;orthogonalLoop=1;jettySize=auto;html=1;entryX=1;entryY=0.5;entryDx=0;entryDy=0;" parent="1" source="-i15NabXnN7qi55ZS0tn-2" target="-i15NabXnN7qi55ZS0tn-1" edge="1">
          <mxGeometry relative="1" as="geometry">
            <Array as="points">
              <mxPoint x="27" y="11044" />
              <mxPoint x="27" y="10944" />
            </Array>
          </mxGeometry>
        </mxCell>
        <mxCell id="-i15NabXnN7qi55ZS0tn-11" value="yes" style="edgeStyle=orthogonalEdgeStyle;rounded=0;orthogonalLoop=1;jettySize=auto;html=1;exitX=0.5;exitY=1;exitDx=0;exitDy=0;" parent="1" source="-i15NabXnN7qi55ZS0tn-2" target="-i15NabXnN7qi55ZS0tn-8" edge="1">
          <mxGeometry relative="1" as="geometry" />
        </mxCell>
        <mxCell id="-i15NabXnN7qi55ZS0tn-2" value="거슬린다" style="rhombus;whiteSpace=wrap;html=1;" parent="1" vertex="1">
          <mxGeometry x="-98" y="11004" width="80" height="80" as="geometry" />
        </mxCell>
        <mxCell id="-i15NabXnN7qi55ZS0tn-12" value="no" style="edgeStyle=orthogonalEdgeStyle;rounded=0;orthogonalLoop=1;jettySize=auto;html=1;entryX=0;entryY=0.5;entryDx=0;entryDy=0;" parent="1" source="-i15NabXnN7qi55ZS0tn-8" target="-i15NabXnN7qi55ZS0tn-2" edge="1">
          <mxGeometry relative="1" as="geometry">
            <Array as="points">
              <mxPoint x="-118" y="11174" />
              <mxPoint x="-118" y="11044" />
            </Array>
          </mxGeometry>
        </mxCell>
        <mxCell id="-i15NabXnN7qi55ZS0tn-19" value="yes" style="edgeStyle=orthogonalEdgeStyle;rounded=0;orthogonalLoop=1;jettySize=auto;html=1;entryX=0.5;entryY=0;entryDx=0;entryDy=0;" parent="1" source="-i15NabXnN7qi55ZS0tn-8" target="-i15NabXnN7qi55ZS0tn-18" edge="1">
          <mxGeometry relative="1" as="geometry" />
        </mxCell>
        <mxCell id="-i15NabXnN7qi55ZS0tn-8" value="상대방이&lt;br&gt;떠나?" style="rhombus;whiteSpace=wrap;html=1;" parent="1" vertex="1">
          <mxGeometry x="-98" y="11134" width="80" height="80" as="geometry" />
        </mxCell>
        <mxCell id="-i15NabXnN7qi55ZS0tn-22" value="yes" style="edgeStyle=orthogonalEdgeStyle;rounded=0;orthogonalLoop=1;jettySize=auto;html=1;exitX=1;exitY=0.5;exitDx=0;exitDy=0;" parent="1" source="-i15NabXnN7qi55ZS0tn-18" target="-i15NabXnN7qi55ZS0tn-21" edge="1">
          <mxGeometry relative="1" as="geometry" />
        </mxCell>
        <mxCell id="-i15NabXnN7qi55ZS0tn-24" value="no" style="edgeStyle=orthogonalEdgeStyle;rounded=0;orthogonalLoop=1;jettySize=auto;html=1;entryX=0.5;entryY=0;entryDx=0;entryDy=0;" parent="1" source="-i15NabXnN7qi55ZS0tn-18" target="-i15NabXnN7qi55ZS0tn-23" edge="1">
          <mxGeometry relative="1" as="geometry" />
        </mxCell>
        <mxCell id="-i15NabXnN7qi55ZS0tn-18" value="잡아?" style="rhombus;whiteSpace=wrap;html=1;" parent="1" vertex="1">
          <mxGeometry x="-98" y="11246" width="80" height="80" as="geometry" />
        </mxCell>
        <mxCell id="-i15NabXnN7qi55ZS0tn-21" value="옷자락잡고 눈물흘려" style="rounded=0;whiteSpace=wrap;html=1;" parent="1" vertex="1">
          <mxGeometry x="29" y="11256" width="120" height="60" as="geometry" />
        </mxCell>
        <mxCell id="-i15NabXnN7qi55ZS0tn-23" value="ok ㅃ2" style="ellipse;whiteSpace=wrap;html=1;" parent="1" vertex="1">
          <mxGeometry x="-96.75" y="11373" width="77.5" height="51.67" as="geometry" />
        </mxCell>
      </root>
    </mxGraphModel>
  </diagram>
</mxfile>
